<?xml version="1.0" standalone="no"?><!DOCTYPE svg PUBLIC "-//W3C//DTD SVG 1.1//EN" "http://www.w3.org/Graphics/SVG/1.1/DTD/svg11.dtd"><svg t="1555997705348" class="icon" style="" viewBox="0 0 1024 1024" version="1.1" xmlns="http://www.w3.org/2000/svg" p-id="3064" xmlns:xlink="http://www.w3.org/1999/xlink" width="200" height="200"><defs><style type="text/css"></style></defs><path d="M857.776 791.664l-106.96-53.455c-30.675-15.33-57.244-23.813-81.23-25.934l-8.457-0.746-3.862-7.56c-19.192-37.57-53.671-63.833-98.106-75.136-5.287 22.59-25.598 39.464-49.777 39.464-24.189 0-44.508-16.888-49.783-39.494-42.994 10.582-78.792 34.328-97.663 65.377l-3.192 5.252-5.933 1.6c-20.15 5.426-46.187 17.147-81.941 36.886l-83.203 45.935 64.511-69.792c31.872-34.48 57.695-108.33 74.679-213.565 13.077-81.034 16.15-152.24 16.18-152.95l0.063-0.89c0.147-1.477 3.864-36.583 25.222-71.869 20.116-33.234 59.94-72.848 135.42-72.848 2.096 0 4.24 0.03 6.37 0.092 34.187 0.983 64.407 7.868 89.822 20.462 21.871 10.84 40.27 25.906 54.685 44.783 29.55 38.699 32.98 80.203 33.326 92.002 2.274 76.251 9.057 134.567 14.347 170.059 14.161 95.009 36.808 158.493 65.491 183.59l89.99 78.737zM680.615 682.631c10.894 1.483 22.153 4.014 33.87 7.62-18.264-36.718-32.513-89.022-42.555-156.39-5.412-36.311-12.35-95.918-14.668-173.676-0.199-6.756-2.437-42.058-27.041-74.278-25.754-33.726-66.46-51.622-120.99-53.19-51.89-1.499-90.474 18.035-114.645 57.965-16.746 27.668-20.488 55.249-20.899 58.674-0.668 15.457-10.521 219.771-66.617 335.848 11.777-5.23 22.272-9.212 31.931-12.146 26.943-40.394 74.726-68.646 132.173-77.905l17.792-2.868v24.895c0 11.258 9.16 20.417 20.417 20.417 11.257 0 20.416-9.16 20.416-20.417v-24.988l17.826 2.915c59.223 9.683 106.122 40.64 132.99 87.524z" fill="#1296db" p-id="3065"></path><path d="M783.69 648.79c-29.98 0-54.37-24.389-54.37-54.368v-69.885l19.231 5.025c10.065 2.63 21.054 3.964 32.66 3.964 12.605 0 25.082-1.825 37.083-5.426l19.762-5.928v72.25c0 29.979-24.389 54.368-54.367 54.368z m-23.67-85.857v31.488c0 13.051 10.618 23.67 23.67 23.67 13.05 0 23.666-10.619 23.666-23.67v-32.34a160.141 160.141 0 0 1-26.144 2.144c-7.242 0-14.323-0.432-21.193-1.292zM240.69 648.79c-29.977 0-54.367-24.389-54.367-54.368v-72.25l19.76 5.929a128.948 128.948 0 0 0 37.083 5.426c11.606 0 22.595-1.333 32.662-3.963l19.23-5.023v69.881c0 29.979-24.39 54.368-54.368 54.368z m-23.668-86.707v32.34c0 13.05 10.617 23.668 23.668 23.668s23.668-10.618 23.668-23.669v-31.488c-6.87 0.86-13.95 1.292-21.192 1.292a160.137 160.137 0 0 1-26.144-2.143z m700.88-179.9l-19.628-0.15-0.011-15.218c-0.005-7.528-0.006-14.251-0.002-20.159-23.08 12.302-48.908 18.517-77.116 18.517-50.173 0-96.484-19.77-123.6-34.203-5.01 8.386-12.755 14.716-22.866 18.488l-16.501 6.156-3.845-17.187c-4.26-19.051-14.48-46.436-38.975-68.704l-6.194-5.63 1.38-8.254a521.427 521.427 0 0 1 2.445-13.516c7.613-43.677 29.639-50.203 42.1-50.203 3.313 0 6.46 0.448 9.377 1.163 5.78-10.645 16.351-21.719 34.383-28.484 37.786-14.18 75.596-21.37 112.38-21.37 57.738 0 94.866 17.763 102.33 21.67 7.895 2.891 40.998 16.515 48.815 44.11 11.561 24.29 21.425 103.017-1.25 144.287-9.676 17.61-24.442 27.519-42.703 28.654l-0.519 0.032z m11.65-96.643l-0.484 32.744c-0.062 4.221-0.098 13.498-0.107 27.674 1.78-1.783 3.55-4.137 5.258-7.244 7.481-13.617 10.944-37.409 9.502-65.276-1.397-27.001-6.698-46.773-9.227-51.357l-1.022-1.855-0.483-2.063c-2.665-11.406-22.144-21.575-30.62-24.462l-1.369-0.467-1.257-0.714c-0.278-0.154-33.671-18.392-88.514-18.392-33.089 0-67.27 6.532-101.595 19.414-18.324 6.876-20.304 19.312-20.511 21.524l1.172 35.01-26.293-23.562c-1.612-1.25-5.754-3.693-8.913-3.693-3.766 0-8.9 7.7-11.878 24.902l-0.058 0.314a514.674 514.674 0 0 0-0.937 4.942c14.867 15.119 24.905 31.609 31.685 47.02l1.226-17.327 21.255 12.277c0.255 0.147 0.715 0.425 1.37 0.824 19.034 11.637 69.16 38.703 123.393 38.703 31.731 0 59.633-9.541 82.931-28.358l25.476-20.578z" fill="#1296db" p-id="3066"></path><path d="M781.212 564.225c-46.42 0-84.48-17.638-110.063-51.011l-2.537-3.308-0.514-4.136c-3.9-31.35-8.944-82.056-10.837-145.585-0.11-3.734-0.637-11.519-2.927-21.758l-2.92-13.056 12.534-4.676c6.111-2.28 8.936-6.33 9.445-13.541l1.733-24.485 21.255 12.276c0.256 0.148 0.716 0.427 1.372 0.827 19.03 11.636 69.151 38.7 123.377 38.7h0.013c31.734-0.001 59.637-9.543 82.932-28.357l25.474-20.574-0.482 32.742c-0.248 16.932 0 109.302 0.002 110.233 0 37.387-15.998 72.053-45.047 97.65-27.848 24.544-64.361 38.06-102.81 38.06z m-83.173-66.52c19.725 23.773 47.685 35.821 83.172 35.821 64.602 0 117.16-47.088 117.16-104.968-0.007-2.694-0.132-49.247-0.11-81.902-23.08 12.301-48.903 18.515-77.114 18.517h-0.015c-50.172 0.001-96.474-19.77-123.588-34.202-2.842 4.758-6.566 8.856-11.105 12.198 1.018 6.744 1.393 12.222 1.508 16.106 1.773 59.516 6.359 107.494 10.092 138.43zM106.477 382.182l-0.52-0.032c-18.26-1.135-33.025-11.045-42.7-28.655-22.676-41.274-12.813-119.999-1.251-144.286 7.818-27.592 40.922-41.219 48.818-44.11 7.469-3.91 44.59-21.67 102.328-21.67 36.784 0 74.595 7.19 112.38 21.371 18.031 6.767 28.601 17.838 34.38 28.484 2.916-0.715 6.065-1.163 9.377-1.163 12.463 0 34.49 6.528 42.105 50.204 0.962 4.952 1.85 9.892 2.638 14.685l1.219 7.413-5.107 5.51c-22.476 24.251-31.444 54.208-34.79 69.907l-3.232 15.172-15.137-3.393c-13.626-3.053-23.959-10.262-30.15-20.65-27.114 14.43-73.434 34.2-123.59 34.203h-0.015c-28.21-0.002-54.036-6.216-77.114-18.517 0.004 5.91 0.003 12.633-0.002 20.16l-0.011 15.224-19.626 0.143zM213.152 174.13c-54.851 0-88.235 18.237-88.566 18.421l-1.297 0.736-1.278 0.415c-8.815 3.058-27.961 13.084-30.619 24.46l-0.483 2.065-1.023 1.856c-2.529 4.584-7.83 24.354-9.227 51.356-1.442 27.866 2.022 51.658 9.503 65.276 1.706 3.105 3.475 5.458 5.254 7.241-0.01-14.05-0.046-23.48-0.108-27.673l-0.479-32.737 25.471 20.572c23.296 18.814 51.198 28.355 82.931 28.357h0.012c54.207 0 104.336-27.06 123.374-38.695a78.185 78.185 0 0 1 1.39-0.836l21.247-12.254 1.732 24.467c0.093 1.32 0.252 2.636 0.547 3.909 5.763-16.874 15.316-37.44 30.98-56.186a506.741 506.741 0 0 0-1.283-6.842l-0.057-0.313c-2.98-17.203-8.116-24.902-11.885-24.902-3.4 0-7.907 2.853-8.879 3.66l-26.296 21.833 1.138-33.25c-0.208-2.214-2.187-14.646-20.505-21.52-34.326-12.885-68.506-19.416-101.594-19.416z" fill="#1296db" p-id="3067"></path><path d="M243.167 564.226c-38.447 0-74.958-13.515-102.81-38.058-29.051-25.6-45.05-60.264-45.05-97.61 0.002-0.973 0.25-93.344 0.001-110.275l-0.479-32.739 25.472 20.573c23.3 18.818 51.202 28.358 82.93 28.357 54.21-0.001 104.35-27.063 123.391-38.697a74.783 74.783 0 0 1 1.386-0.834l21.247-12.254 1.732 24.467c0.436 6.154 2.278 12.17 12.71 14.509l14.822 3.322-3.166 14.856c-1.069 5.02-1.536 8.48-1.669 9.56-0.324 7.076-3.762 76.767-16.453 155.572l-0.598 3.712-2.245 3.015c-25.589 34.362-64.049 52.524-111.221 52.524zM126.116 346.657c0.021 32.658-0.104 79.22-0.11 81.944 0 57.838 52.557 104.927 117.16 104.927 36.23 0 64.595-12.535 84.367-37.267 12.523-79.357 15.476-148.017 15.503-148.711l0.065-0.91 0.014-0.141c-6.911-3.772-12.408-9.027-16.282-15.529-27.118 14.43-73.44 34.203-123.604 34.204-28.205 0-54.031-6.215-77.113-18.517z" fill="#1296db" p-id="3068"></path><path d="M501.603 583.79c-51.823 0-91.972-25.093-116.11-72.568-17.514-34.444-20.192-68.571-20.297-70.008l-0.63-8.596 7.011-5.013c22.138-15.83 56.247-41.983 62.77-50.567l11.31-14.884 12.28 13.856c8.22 7.813 78.748 45.193 163.865 45.193 5.986 0 11.982-0.192 17.825-0.572l18.96-1.231-2.781 18.796a911.832 911.832 0 0 0-0.645 4.442c-3.132 21.803-7.866 54.75-27.779 83.868-24.228 35.426-63.991 54.64-118.182 57.11-2.545 0.115-5.102 0.174-7.597 0.174zM396.89 447.188c1.761 10.908 6.146 31.1 16.36 50.886 19.806 38.368 51.633 56.826 94.55 54.873 90.646-4.13 108.017-59.884 114.904-101.047l-0.902 0.001c-73.998 0-143.667-26.941-173.552-45.34-14.786 13.545-38.46 31.222-51.36 40.627z" fill="#1296db" p-id="3069"></path><path d="M509.384 668.297c-28.185 0-51.116-22.93-51.116-51.116v-70.94l18.734 4.236c9.468 2.142 19.83 2.971 30.799 2.47 12.136-0.552 23.496-2.082 33.766-4.548l18.933-4.545v73.328c0 28.184-22.931 51.115-51.116 51.115z m-20.417-85.027v33.91c0 11.259 9.16 20.418 20.417 20.418 11.257 0 20.416-9.16 20.416-20.417V581.77a230.05 230.05 0 0 1-20.6 1.844c-6.906 0.316-13.673 0.204-20.233-0.344z" fill="#1296db" p-id="3070"></path><path d="M703.563 981.129h-388.36V752.45c0-41.478 16.579-78.634 47.945-107.446 27.62-25.37 65.985-43.076 108.027-49.851l17.792-2.868v24.895c0 11.258 9.16 20.417 20.417 20.417 11.257 0 20.416-9.16 20.416-20.417v-24.988l17.827 2.915c39.158 6.403 73.887 22.61 100.434 46.868 30.226 27.621 48.844 64.04 55.339 108.245l0.162 1.109v229.8z m-357.661-30.7h326.962V753.594c-13.021-85.312-74.987-114.661-113.718-124.705-5.307 22.562-25.604 39.409-49.762 39.409-24.18 0-44.494-16.879-49.779-39.472-58.95 14.64-113.703 56.602-113.703 123.626V950.43z" fill="#1296db" p-id="3071"></path><path d="M1000.63 934.922H672.864V753.594c-2.764-18.081-8.01-34.774-15.597-49.627l-12.628-24.717 27.65 2.445c13.408 1.185 27.346 3.997 42 8.496-10.813-21.766-20.165-49.102-28.22-82.356l-3.218-13.284 12.823-4.73c14.824-5.47 30.446-9.616 46.43-12.324l17.915-3.036v19.963c0 13.051 10.62 23.67 23.67 23.67 13.05 0 23.667-10.619 23.667-23.67V573.82l17.54 2.529c43.982 6.34 83.076 23.636 113.053 50.016 34.207 30.103 55.24 70.11 62.514 118.908l0.168 1.125v188.525z m-297.067-30.699h266.368v-155.53c-15.192-98.414-89.847-129.412-134.014-139.15-6.566 22.647-27.494 39.248-52.228 39.248-24.24 0-44.825-15.943-51.819-37.894a228.45 228.45 0 0 0-12.48 3.357c13.006 48.294 29.634 82.257 48.395 98.673l89.995 78.74-106.964-53.457c-19.982-9.987-38.225-17.069-55.144-21.378 3.439 10.633 6.025 21.79 7.729 33.389l0.162 1.11v152.892z m-357.661 30.7H23.748V746.395l0.168-1.125c7.276-48.799 28.31-88.804 62.517-118.907 29.977-26.38 69.07-43.675 113.05-50.016l17.54-2.529v20.602c0 13.051 10.617 23.67 23.668 23.67s23.668-10.619 23.668-23.67v-19.964l17.914 3.037c14.94 2.531 29.587 6.324 43.535 11.272l13.483 4.784-3.824 13.786c-8.367 30.16-17.836 56.161-28.333 77.841 14.16-6.284 26.462-10.763 37.692-13.787l37.017-9.967-19.908 32.761c-10.64 17.507-16.033 37.112-16.033 58.266v182.472z m-291.454-30.7h260.754V752.45c0-13.737 1.804-26.977 5.386-39.631-14.173 6.239-30.55 14.517-49.717 25.098l-83.197 45.931 64.507-69.787c18.826-20.367 35.482-54.218 49.591-100.748a228.903 228.903 0 0 0-9.264-2.418c-6.994 21.951-27.579 37.895-51.817 37.895-24.732 0-45.66-16.603-52.228-39.246-44.167 9.74-118.821 40.737-134.015 139.149v155.53z" fill="#1296db" p-id="3072"></path></svg>