<?xml version="1.0" standalone="no"?><!DOCTYPE svg PUBLIC "-//W3C//DTD SVG 1.1//EN" "http://www.w3.org/Graphics/SVG/1.1/DTD/svg11.dtd"><svg t="1555576723133" class="icon" style="" viewBox="0 0 1024 1024" version="1.1" xmlns="http://www.w3.org/2000/svg" p-id="6727" xmlns:xlink="http://www.w3.org/1999/xlink" width="200" height="200"><defs><style type="text/css"></style></defs><path d="M13.653 512a498.347 498.347 0 1 0 996.694 0 498.347 498.347 0 1 0-996.694 0z" fill="#FC6B79" p-id="6728"></path><path d="M863.573 160.427c194.56 194.56 194.56 508.586 0 703.146s-508.586 194.56-703.146 0" fill="#DD365E" p-id="6729"></path><path d="M160.427 597.333l-51.2 88.747h102.4zM768 204.8l17.067 27.307 30.72 6.826-23.894 20.48 6.827 30.72L768 276.48l-27.307 13.653 6.827-30.72-23.893-20.48 30.72-6.826zM542.72 71.68l10.24 20.48 23.893 3.413-17.066 13.654 3.413 23.893-20.48-10.24-17.067 10.24 3.414-23.893L512 95.573l20.48-3.413z" fill="#FFFFFF" p-id="6730"></path><path d="M484.693 194.56c23.894 27.307 44.374 54.613 58.027 88.747 17.067 37.546 27.307 78.506 23.893 122.88 0 3.413 0 6.826 3.414 6.826 6.826 6.827 17.066 13.654 23.893 20.48 20.48 17.067 27.307 37.547 23.893 61.44-3.413 27.307-10.24 51.2-13.653 78.507-3.413 17.067-20.48 23.893-34.133 13.653-13.654-13.653-30.72-23.893-44.374-37.546-6.826-6.827-6.826-6.827-13.653 0-20.48 13.653-40.96 20.48-64.853 13.653-13.654-3.413-23.894-10.24-34.134-17.067-3.413-3.413-3.413-3.413-6.826 0-13.654 13.654-30.72 27.307-44.374 40.96-13.653 10.24-30.72 3.414-34.133-13.653-3.413-10.24-6.827-23.893-6.827-34.133-3.413-13.654-6.826-23.894-6.826-37.547-3.414-23.893 0-44.373 17.066-61.44 10.24-10.24 20.48-17.067 30.72-27.307 3.414 0 3.414-3.413 3.414-6.826-3.414-47.787 6.826-88.747 27.306-133.12 10.24-23.894 23.894-44.374 40.96-64.854 6.827-10.24 17.067-20.48 27.307-27.306 6.827-3.414 6.827-3.414 13.653 0 0 3.413 6.827 6.826 10.24 13.653z" fill="#FFE08A" p-id="6731"></path><path d="M501.76 300.373c-20.48-20.48-58.027-23.893-78.507 0-23.893 20.48-23.893 58.027 0 81.92 20.48 20.48 58.027 20.48 78.507 0 23.893-23.893 23.893-58.026 0-81.92z m-95.573 276.48c3.413-3.413 6.826-3.413 13.653-3.413 23.893 10.24 44.373 13.653 68.267 6.827 6.826 0 10.24-3.414 13.653-6.827 10.24-3.413 17.067 0 17.067 10.24v44.373c0 3.414 0 10.24-6.827 10.24-3.413 3.414-10.24 0-13.653-3.413l-6.827-6.827c-3.413-3.413-3.413-3.413-6.827 0-6.826 10.24-10.24 20.48-17.066 34.134 0 3.413-3.414 6.826-6.827 6.826-6.827 0-10.24 0-13.653-6.826-6.827-10.24-10.24-23.894-17.067-34.134-3.413-3.413-3.413-3.413-6.827 0l-6.826 6.827c-3.414 3.413-6.827 3.413-13.654 3.413-3.413-3.413-6.826-6.826-6.826-10.24V583.68c6.826 0 10.24-3.413 10.24-6.827z" fill="#FFFFFF" p-id="6732"></path><path d="M860.16 757.76l61.44-269.653c0-6.827-10.24-6.827-10.24-6.827l-259.413 95.573c-3.414 0-3.414 3.414-3.414 3.414-3.413 3.413-3.413 3.413-3.413 6.826s0 6.827 3.413 6.827l98.987 20.48C624.64 761.173 552.96 815.787 378.88 815.787c105.813 51.2 225.28 71.68 433.493-143.36L846.507 768c0 3.413 3.413 3.413 6.826 3.413 3.414-6.826 6.827-10.24 6.827-13.653z" fill="#66C1FF" p-id="6733"></path></svg>