<?xml version="1.0" standalone="no"?><!DOCTYPE svg PUBLIC "-//W3C//DTD SVG 1.1//EN" "http://www.w3.org/Graphics/SVG/1.1/DTD/svg11.dtd"><svg t="1556267665916" class="icon" style="" viewBox="0 0 1026 1024" version="1.1" xmlns="http://www.w3.org/2000/svg" p-id="3190" xmlns:xlink="http://www.w3.org/1999/xlink" width="200.390625" height="200"><defs><style type="text/css"></style></defs><path d="M442.931 260.87l-46.53-46.531 23.316-23.317 46.53 46.53zM335.616 153.548l23.316-23.312 45.906 45.917-23.316 23.311z m97.085 24.499l23.312-23.316 46.53 46.53-23.316 23.317z m-37.488-84.111l45.9 45.906-23.31 23.31-45.907-45.905z m367.892 431.109l54.134-54.134 59.146 59.146-54.133 54.134z m133.817 133.847l-59.341-59.341 54.128-54.134 59.351 59.351z" fill="#EFA220" p-id="3191"></path><path d="M533.315 0H1.009l1023.984 1024V491.694L533.315 0zM736.67 335.232a184.381 184.381 0 0 0 10.148-29.998l17.735 12.877a322.11 322.11 0 0 1-13.404 31.6l45.911 45.911-13.179 13.174-56.658-56.663c-31.308 8.428-55.3 12.426-71.956 11.991 18.176 16.01 32.082 28.16 41.712 36.444 13.225-1.915 25.621-4.797 37.182-8.642l5.714 18.273c-61.235 19.6-119.004 16.701-173.307-8.668l4.101-20.23c33.603 16.303 68.209 23.61 103.818 21.91a6026.435 6026.435 0 0 1-48.553-44.09l8.863-15.062c1.096 0.553 2.458 1.116 4.111 1.674 13.271 3 37.602 0.036 73.012-8.898l-40.12-40.12 13.168-13.175 51.702 51.692zM418.278 3.046l78.792 78.792c3.461-8.161 6.19-15.16 8.187-21.012l18.35 13.081c-2.268 5.3-6.016 13.046-11.233 23.23l78.372 78.377-35.482 35.481-14.474-14.48 22.297-22.297L419.574 30.694l-23.317 23.322-14.474-14.474 36.495-36.496z m-0.071 282.548l11.356-11.351-46.526-46.531-41.16 41.16-14.888-14.89 41.16-41.159-45.906-45.911-11.971 11.97-14.48-14.474 98.33-98.33 60.386 60.38 20.275-20.27 14.889 14.89-20.276 20.27 61 61.005-97.715 97.72-14.474-14.48z m59.315 117.714l101.576-101.581c-26.89 13.931-54.16 23.972-81.808 30.11l8.802-21.212c35.153-5.929 69.488-19.307 102.999-40.13l-27.915-27.92 13.983-13.982 28.539 28.533 39.531-39.536 14.27 14.27-39.532 39.536 24.402 24.402-13.988 13.988-24.401-24.402-13.18 13.179c-1.172 19.911-3.742 42.618-7.72 68.1l-20.639 4.102c6.175-24.371 10.347-43.177 12.55-56.392l-103.2 103.204-14.27-14.27z m168.93 145.807l-21.3-0.21c3.482-21.663 4.66-47.253 3.538-76.744-37.832-2.421-74.163-12.267-109.01-29.537l4.506-20.639c64.338 32.988 130.744 39.378 199.203 19.17l6.13 19.102c-27.91 8.325-55.44 12.421-82.602 12.283 2.063 29.097 1.91 54.625-0.466 76.575z m238.397 151.624l-14.894-14.895 12.774-12.769-59.351-59.35-69.135 69.14-15.304-15.31 69.135-69.13-59.146-59.146-12.77 12.775-14.888-14.89 95.288-95.288 74.03 74.03 36.496-36.49 15.303 15.299-36.495 36.5 74.24 74.24-95.283 95.284z" fill="#EFA220" p-id="3192"></path></svg>