<?xml version="1.0" standalone="no"?><!DOCTYPE svg PUBLIC "-//W3C//DTD SVG 1.1//EN" "http://www.w3.org/Graphics/SVG/1.1/DTD/svg11.dtd"><svg t="1557110142764" class="icon" style="" viewBox="0 0 1024 1024" version="1.1" xmlns="http://www.w3.org/2000/svg" p-id="2250" xmlns:xlink="http://www.w3.org/1999/xlink" width="200" height="200"><defs><style type="text/css">@font-face { font-family: uc-nexus-iconfont; src: url("chrome-extension://pogijhnlcfmcppgimcaccdkmbedjkmhi/res/font_9qmmi8b8jsxxbt9.woff") format("woff"), url("chrome-extension://pogijhnlcfmcppgimcaccdkmbedjkmhi/res/font_9qmmi8b8jsxxbt9.ttf") format("truetype"); }
</style></defs><path d="M959.3 517.2c0-252.3-200.2-452.5-452.4-452.5C265.3 64.8 65.1 265 65.1 517.2 65.1 758.8 265.3 959 506.9 959c252.2 0 452.4-200.2 452.4-441.8z m-653.5 33.4c-4-4-4.5-11.1-0.9-16l13.3-18.2c3.6-4.9 9.8-5.8 14.7-2.2l110.3 85c4.4 3.6 12 3.6 16.5-0.4l282.5-235.3c4.5-3.6 11.6-3.6 15.6 0.4l11.1 10.7c4 4 4 10.7 0 14.7L459.3 693.9c-4 4-10.7 4-14.7 0L305.8 550.6z m0 0" fill="#efa220" p-id="2251"></path></svg>