<?xml version="1.0" standalone="no"?><!DOCTYPE svg PUBLIC "-//W3C//DTD SVG 1.1//EN" "http://www.w3.org/Graphics/SVG/1.1/DTD/svg11.dtd"><svg t="1555925210218" class="icon" style="" viewBox="0 0 1024 1024" version="1.1" xmlns="http://www.w3.org/2000/svg" p-id="2898" xmlns:xlink="http://www.w3.org/1999/xlink" width="200" height="200"><defs><style type="text/css"></style></defs><path d="M220.314 855.24s4.565-22.725 25.523-124.436c16.906-82.052 21.665-179.781 100.339-215.587 66.547-30.286 136.706-62.966 173.9-76.475 39.034-14.164 52.315-0.997 64.484 21.573 13.447 24.986-0.44 45.037-20.318 56.943-43.658 26.15-119.277 64.112-119.277 98.099 0 42.87 71.346 35.612 161.192 22.243 59.94-8.916 98.913-50.83 125.4-81.043 35.332-40.308 75.93-108.882 115.133-144.62 36.247-33.072 71.811-35.88 89.464-14.118 17.993 22.16-88.665 182.443-185.674 318.006-35.906 50.18-90.362 62.441-148.037 74.906-142.772 30.8-183.919 64.51-183.919 64.51h-198.21z" fill="#D81E06" p-id="2899"></path><path d="M800.485 132.062c-6.209-0.606-12.018-0.9-17.468-0.9-43.666 0-64.601 18.868-88.58 47.444-23.978-28.574-44.925-47.445-88.585-47.445-5.45 0-11.26 0.295-17.47 0.9-37.785 3.69-81.48 38.287-86.8 104.584v22.065c4.956 63.453 52.854 141.72 192.856 239.917 139.994-98.197 187.905-176.464 192.86-239.917v-22.066c-5.332-66.296-49.026-100.893-86.813-104.582z" fill="#D81E06" p-id="2900"></path></svg>