<?xml version="1.0" standalone="no"?><!DOCTYPE svg PUBLIC "-//W3C//DTD SVG 1.1//EN" "http://www.w3.org/Graphics/SVG/1.1/DTD/svg11.dtd"><svg t="1555667056308" class="icon" style="" viewBox="0 0 1024 1024" version="1.1" xmlns="http://www.w3.org/2000/svg" p-id="5113" xmlns:xlink="http://www.w3.org/1999/xlink" width="200" height="200"><defs><style type="text/css"></style></defs><path d="M192.61 195.048h246.247c34.133 0 56.076 29.257 46.324 63.39l-114.59 504.686c-7.315 36.571-41.448 63.39-75.581 63.39H48.762c-34.133 0-56.076-29.257-46.324-63.39l114.59-504.686c7.315-34.133 41.448-63.39 75.582-63.39z" fill="#E03333" p-id="5114"></path><path d="M426.667 195.048h304.762c36.571 0 19.504 29.257 12.19 63.39L619.276 763.124c-9.752 36.571-4.876 63.39-43.886 63.39H273.067c-36.572 0-60.953-29.257-51.2-63.39L346.21 258.438c7.314-34.133 43.885-63.39 80.457-63.39z" fill="#004889" p-id="5115"></path><path d="M728.99 195.048h246.248c34.133 0 56.076 29.257 46.324 63.39l-114.59 504.686c-7.315 36.571-41.448 63.39-75.582 63.39H585.143c-34.133 0-56.076-29.257-46.324-63.39l114.59-504.686c7.315-34.133 41.448-63.39 75.581-63.39z" fill="#008089" p-id="5116"></path><path d="M677.79 655.848h24.381l7.315-21.943h-24.381l-7.315 21.943z m19.505-60.953l-7.314 26.82s9.752-4.877 14.629-4.877c4.876 0 12.19-2.438 12.19-2.438l4.876-17.067-24.38-2.438z m12.19-39.01l-7.314 24.382s9.753-4.877 14.629-4.877c4.876-2.438 12.19-2.438 12.19-2.438l4.877-17.066h-24.381z m53.639 0l-31.695 99.963h7.314l-7.314 19.504h-7.315l-2.438 7.315H692.42l2.438-7.315h-60.952l7.314-19.504h7.314l31.696-99.962 7.314-19.505h31.695l-2.438 9.752s7.314-4.876 17.067-7.314c2.438-2.438 46.323-2.438 46.323-2.438l-7.314 19.505h-9.752z" fill="#FFFFFF" p-id="5117"></path><path d="M780.19 536.381h31.696v12.19c0 2.439 2.438 2.439 4.876 2.439h7.314l-7.314 19.504h-17.067c-14.628 0-21.943-4.876-19.505-12.19V536.38z m-9.752 90.21h-31.695l4.876-17.067h36.571l4.877-14.629h-34.134l7.315-19.505h97.523l-7.314 19.505h-31.695l-7.314 14.629h31.695l-4.876 17.066h-34.134l-7.314 7.315h14.629l2.438 21.943v4.876h12.19l-4.876 21.943h-17.067c-2.438 0-4.876-2.438-7.314-2.438-2.438 0-4.876-2.439-4.876-7.315l-2.438-21.943-17.067 21.943c-4.876 7.315-12.19 12.19-24.38 12.19h-21.944l4.876-19.504h9.753c2.438 0 4.876 0 7.314-2.438 2.438 0 2.438-2.438 4.876-4.876l19.505-31.696z m-338.895-46.324h82.895l-7.314 19.504h-31.695l-4.877 14.629h34.134l-7.315 19.505h-34.133l-7.314 26.819c0 2.438 7.314 2.438 12.19 2.438l17.067-2.438-7.314 21.943h-48.762c-2.438 0-4.876-2.438-7.315-4.877-2.438-2.438-2.438-4.876-2.438-7.314l9.753-34.133h-14.629l7.314-19.505h17.067l4.876-14.628H424.23l7.314-21.943z m90.21-34.134l-7.315 19.505h-46.324l-4.876 4.876c-2.438 2.438-2.438 0-4.876 2.438s-7.314 4.877-14.629 4.877h-14.628l7.314-19.505h9.752c2.439 0 2.439-2.438 4.877-4.876l7.314-14.629h34.133l-4.876 7.314h34.133z m29.257 31.696s9.752-7.315 24.38-9.753h26.82l2.438-9.752h-46.324l-7.314 19.505z m46.323 9.752H551.01l-2.439 9.752h48.762v-9.752z m-60.952-51.2h29.257l-4.876 14.629s9.752-7.315 14.628-9.753c7.315-2.438 19.505-4.876 19.505-4.876h46.324l-14.629 51.2c-2.438 7.314-4.876 14.629-7.314 17.067-2.438 2.438-2.438 4.876-7.314 7.314-4.876 2.438-7.314 2.438-9.752 2.438h-58.515l-12.19 39.01c0 4.876-2.438 4.876 0 7.314 0 0 2.438 2.438 4.876 2.438l19.505-2.438-12.19 21.943h-36.572c-2.438 0-7.314 0-9.753-2.438-2.438-2.439-4.876-4.877-4.876-7.315 0-2.438 0-4.876 2.438-9.752l41.448-126.781z" fill="#FFFFFF" p-id="5118"></path><path d="M626.59 611.962l-2.438 12.19c0 4.877-2.438 7.315-4.876 9.753s-7.314 4.876-14.628 4.876H587.58v14.629c0 4.876 0 4.876 2.438 4.876h21.943l-4.876 24.38h-17.067c-12.19 0-21.943 0-24.38-2.437-4.877-2.439-4.877-4.877-4.877-9.753v-58.514h29.257v12.19h12.19l2.439-2.438 2.438-9.752h19.504zM238.933 365.714c0 4.876-19.504 90.21-19.504 90.21-2.439 17.066-7.315 29.257-17.067 39.01-4.876 4.876-12.19 7.314-19.505 7.314-12.19 0-19.505-4.877-19.505-17.067v-4.876l2.438-24.381 21.943-87.772c-34.133 0-41.447-2.438-41.447-2.438v4.876l-19.505 87.772-2.438 7.314-2.438 24.381c0 7.314 2.438 12.19 4.876 19.505 9.752 17.067 34.133 19.505 48.762 19.505 17.067 0 34.133-4.877 46.324-12.19 19.504-12.191 24.38-31.696 29.257-48.763l2.438-9.752s19.505-80.457 21.943-92.648h-36.572zM346.21 529.067h-31.696c2.438-4.877 2.438-12.19 4.876-17.067l2.439-7.314c2.438-12.19 4.876-26.82 4.876-31.696 0-2.438 0-9.752-7.315-9.752-2.438 0-7.314 2.438-9.752 2.438-2.438 7.314-4.876 26.82-7.314 34.134-2.438 19.504-4.876 19.504-4.876 29.257h-34.134c2.438-9.753 4.876-21.943 7.315-34.134 7.314-29.257 7.314-41.447 9.752-56.076 14.629-2.438 19.505-2.438 34.133-4.876l2.438 2.438-2.438 9.752c2.438-2.438 4.876-2.438 7.315-4.876 7.314-4.876 17.066-4.876 21.942-4.876 7.315 0 14.629 2.438 17.067 9.752 2.438 7.315 0 17.067-2.438 36.572l-4.876 4.876c-2.438 21.943-2.438 24.381-7.314 41.448z m51.2-19.505h-34.134c2.438-7.314 2.438-9.752 4.876-14.629 0-2.438 2.438-4.876 2.438-14.628 2.439-9.753 2.439-17.067 4.877-24.381 0-4.876 2.438-12.19 2.438-17.067 7.314 0 12.19-2.438 17.066-2.438 4.877 0 9.753-2.438 17.067-2.438l-4.876 19.505c-2.438 7.314-2.438 12.19-4.876 19.504-2.438 14.629-4.876 19.505-4.876 21.943 2.438 4.877 2.438 4.877 0 14.629z m82.895-48.762c0 2.438-2.438 17.067-7.315 21.943-2.438 4.876-7.314 7.314-9.752 7.314 0 0-7.314 0-7.314-9.752 0-4.876 0-9.753 2.438-14.629 2.438-14.628 7.314-29.257 17.067-29.257 9.752 0 9.752 9.752 4.876 24.381z m34.133 2.438c4.876-21.943 0-29.257-2.438-36.571-7.314-9.753-19.505-12.19-31.695-12.19-7.315 0-24.381 0-39.01 14.628-9.752 9.752-14.628 21.943-17.066 34.133-2.439 12.19-7.315 36.572 14.628 43.886 7.314 2.438 14.629 4.876 21.943 4.876 14.629 0 29.257-4.876 41.448-17.067 7.314-9.752 12.19-26.819 12.19-31.695z m338.895-48.762c-17.066 2.438-21.943 4.876-36.571 4.876v4.877c-2.438-4.877-4.876-7.315-12.19-9.753-7.315-2.438-24.382 0-36.572 14.629-9.752 9.752-14.629 21.943-17.067 34.133s-7.314 36.572 14.629 43.886c7.314 2.438 12.19 4.876 17.067 2.438 7.314 0 12.19-4.876 17.066-7.314 0 2.438 0 4.876-2.438 4.876h36.572c2.438-14.629 4.876-26.82 9.752-53.638 2.438-12.19 7.314-24.381 9.752-39.01z m-51.2 70.705c-2.438 4.876-9.752 7.314-12.19 7.314 0 0-7.314 0-7.314-9.752 0-4.876 0-9.753 2.438-14.629 2.438-14.628 7.314-29.257 17.066-29.257 7.315 0 9.753 7.314 9.753 17.067 0 2.438 0 4.876-2.438 9.752 0 4.876-2.438 9.753-2.438 14.629-2.439 0-4.877 2.438-4.877 4.876z m-197.485 43.886h-31.696c0-4.877 2.438-12.19 4.877-17.067l2.438-7.314c2.438-12.19 4.876-26.82 4.876-31.696 0-2.438 0-9.752-7.314-9.752-2.439 0-7.315 2.438-9.753 2.438-2.438 7.314-4.876 26.82-7.314 34.134-2.438 19.504-4.876 19.504-4.876 29.257h-34.134c2.438-9.753 4.877-21.943 7.315-34.134 7.314-29.257 7.314-41.447 9.752-56.076 14.629-2.438 19.505-2.438 34.133-4.876v2.438l-2.438 9.752c2.438-2.438 4.876-2.438 7.315-4.876 7.314-4.876 17.066-4.876 21.942-4.876 7.315 0 14.629 2.438 17.067 9.752 2.438 7.315 0 17.067-2.438 36.572l-2.438 4.876c-4.876 21.943-4.876 24.381-7.314 41.448 0-2.438 0 0 0 0z" fill="#FFFFFF" p-id="5119"></path><path d="M699.733 365.714h-53.638v4.876l-9.752 48.762-24.381 107.277h39.01c0-4.877 7.314-34.134 7.314-34.134l4.876-21.943 2.438-2.438h2.438c21.943 0 43.886 0 63.39-14.628 12.191-9.753 21.943-24.381 24.382-41.448V397.41c0-7.315-2.439-12.191-4.877-17.067-9.752-14.629-29.257-14.629-51.2-14.629z m14.629 51.2c-2.438 9.753-9.752 19.505-17.067 24.381-7.314 4.876-17.066 4.876-24.38 4.876h-4.877v-2.438s9.752-48.762 9.752-46.323v-9.753l4.877 2.438 21.943 2.438c7.314 2.438 12.19 12.19 9.752 24.381z m-314.514 26.82c9.752-7.315 9.752-14.63 2.438-19.505-7.315-4.877-19.505-2.439-29.257 2.438-9.753 4.876-9.753 14.628-2.439 19.504 7.315 4.877 19.505 4.877 29.258-2.438z m551.01-51.2c-17.068 2.437-19.506 2.437-34.134 4.876-9.753 26.819-9.753 19.504-19.505 41.447v-2.438l-2.438-43.886-2.438-2.438c-17.067 2.438-17.067 4.876-31.695 4.876v2.439c2.438 9.752 2.438 7.314 2.438 24.38 0 7.315 2.438 17.067 2.438 24.381 2.438 12.19 2.438 19.505 4.876 39.01-9.752 17.067-12.19 24.38-21.943 39.01l-9.752 12.19-2.438 2.438h-7.315l-7.314 21.943h19.505c12.19 0 19.505-4.876 24.38-12.19l12.191-21.943 2.438-2.439c7.315-19.504 70.705-131.657 70.705-131.657z" fill="#FFFFFF" p-id="5120"></path></svg>