<?xml version="1.0" standalone="no"?><!DOCTYPE svg PUBLIC "-//W3C//DTD SVG 1.1//EN" "http://www.w3.org/Graphics/SVG/1.1/DTD/svg11.dtd"><svg t="1555998436288" class="icon" style="" viewBox="0 0 1024 1024" version="1.1" xmlns="http://www.w3.org/2000/svg" p-id="3628" xmlns:xlink="http://www.w3.org/1999/xlink" width="200" height="200"><defs><style type="text/css"></style></defs><path d="M744.887 657.118c-11.651 0-22.267-7.898-25.115-19.807-25.632-104.988-76.766-233.017-101.362-294.508-3.754-9.191-6.861-17.218-9.321-23.559-5.178-13.333 1.295-28.35 14.628-33.53 13.333-5.178 28.35 1.295 33.53 14.628 2.46 6.213 5.567 14.111 9.191 23.301 24.985 62.656 77.025 192.886 103.563 301.499 3.365 13.852-5.178 27.962-19.029 31.328-1.942 0.388-4.013 0.647-6.083 0.647zM473.81 1001.983c-36.895 0-100.197-45.826-118.709-59.807-30.681-23.301-84.144-68.74-98.385-112.366-2.46-7.508-5.825-17.734 13.333-110.425 10.356-50.357 25.632-116.121 42.85-185.119 17.218-68.74 34.435-133.338 48.804-181.883 7.767-26.279 14.369-47.251 19.807-62.527 8.673-24.337 13.852-33.53 22.137-39.095 4.272-2.977 9.451-4.53 14.628-4.53h111.071a26.162 26.162 0 0 1 14.499 4.402c8.156 5.438 13.074 14.239 21.748 39.095 5.308 15.146 11.909 36.117 19.677 62.527 14.239 48.545 31.845 113.402 49.581 182.788 17.606 69.127 33.53 135.02 44.531 185.507 20.194 92.43 17.606 100.974 15.405 108.611-11.393 38.06-71.977 88.029-97.349 107.706-25.374 19.677-88.029 65.115-123.629 65.115zM306.557 815.569c8.026 21.101 38.577 53.982 78.967 84.663 45.438 34.564 79.743 49.581 88.159 49.969 9.709-0.517 45.826-18.383 93.077-55.147 48.804-37.93 72.365-66.798 77.543-78.708-0.907-20.194-21.23-117.674-58.901-265.381-33.658-132.043-60.196-222.143-71.847-252.823h-79.873c-11.909 30.162-38.448 120.262-71.328 252.046-37.024 148.095-56.053 245.963-55.794 265.381z" fill="#1296db" p-id="3629"></path><path d="M473.94 301.378c-22.137 0-42.72-1.295-56.313-3.625-11.651-1.942-21.878-10.098-36.375-28.869-9.321-12.038-20.065-27.962-31.069-46.346-24.208-40.39-43.885-81.814-52.429-110.683-5.567-18.771-11.004-45.697 6.732-62.007 7.898-7.378 22.395-15.534 69.127-20.972 27.185-3.107 62.138-4.918 98.126-4.918 36.375 0 71.588 1.812 99.162 4.918 47.51 5.567 61.361 13.723 69.258 21.878 17.865 18.124 11.263 47.51 3.625 71.2-9.579 29.515-28.35 69.127-50.357 105.893-10.227 17.088-20.065 31.845-28.739 42.85-13.463 17.346-23.69 25.115-34.953 27.055-18.512 3.107-42.978 3.625-55.794 3.625z m-43.108-54.111c10.874 1.423 26.539 2.201 43.108 2.201 16.441 0 31.975-0.778 42.85-2.201 8.673-8.544 29.515-38.318 50.228-78.19 21.878-41.943 30.94-70.163 32.622-82.721-16.699-5.049-61.232-10.745-127.772-10.745-65.762 0-110.035 5.696-127.252 10.745 2.331 12.946 12.169 41.036 34.435 82.463 23.559 43.626 43.885 70.812 51.781 78.449z" fill="#1296db" p-id="3630"></path></svg>