<?xml version="1.0" standalone="no"?><!DOCTYPE svg PUBLIC "-//W3C//DTD SVG 1.1//EN" "http://www.w3.org/Graphics/SVG/1.1/DTD/svg11.dtd"><svg t="1555330769384" class="icon" style="" viewBox="0 0 1024 1024" version="1.1" xmlns="http://www.w3.org/2000/svg" p-id="13464" xmlns:xlink="http://www.w3.org/1999/xlink" width="200" height="200"><defs><style type="text/css">@font-face { font-family: uc-nexus-iconfont; src: url("chrome-extension://pogijhnlcfmcppgimcaccdkmbedjkmhi/res/font_9qmmi8b8jsxxbt9.woff") format("woff"), url("chrome-extension://pogijhnlcfmcppgimcaccdkmbedjkmhi/res/font_9qmmi8b8jsxxbt9.ttf") format("truetype"); }
</style></defs><path d="M287 559h382v56H287zM287 409h450v56H287z" fill="#b2b2b2" p-id="13465"></path><path d="M511.3 988.2c-86.5 0-171.1-23.4-244.8-67.7-1.9-0.2-7.9-0.3-21.8 3-13.1 3.1-28.9 8.2-44.1 13.2-20.2 6.6-41.2 13.3-59.4 16.8-18.1 3.4-44.2 6-61.5-11.5-25.4-25.6-11-69.9 5.6-121.1 5-15.3 10.1-31.1 13.3-44.2 3.4-14.1 3.3-20 3.1-21.9-43.4-73.2-66.3-157-66.3-242.4 0-64.2 12.6-126.6 37.4-185.3 24-56.7 58.3-107.6 102-151.3s94.6-78 151.3-102c58.7-24.8 121-37.4 185.3-37.4S638 49 696.7 73.8c56.7 24 107.6 58.3 151.3 102s78 94.6 102 151.3c24.8 58.7 37.4 121 37.4 185.3S974.8 639 950 697.7c-24 56.7-58.3 107.6-102 151.3s-94.6 78-151.3 102c-58.8 24.6-121.1 37.2-185.4 37.2zM264.6 864.5c11.1 0 21 2.1 29.4 7.2 65.3 39.6 140.4 60.5 217.2 60.5 56.7 0 111.7-11.1 163.5-33 50-21.2 94.9-51.4 133.5-90s68.9-83.5 90-133.5c21.9-51.8 33-106.8 33-163.5s-11.1-111.7-33-163.5c-21.2-50-51.4-94.9-90-133.5s-83.5-68.9-133.5-90c-51.8-21.9-106.8-33-163.5-33s-111.7 11.1-163.5 33c-50 21.2-94.9 51.4-133.5 90s-68.9 83.5-90 133.5c-21.9 51.8-33 106.8-33 163.5 0 75.9 20.5 150.3 59.2 215.1 15.6 26 2.8 65.3-12 110.8-5.1 15.6-10.4 31.8-13.6 45.3-1.8 7.5-2.6 12.7-2.9 16.3 3.6-0.3 8.8-1.1 16.2-2.9 13.4-3.2 29.6-8.4 45.1-13.4 30.8-9.9 58.6-18.9 81.4-18.9z" fill="#b2b2b2" p-id="13466"></path></svg>