<?xml version="1.0" standalone="no"?><!DOCTYPE svg PUBLIC "-//W3C//DTD SVG 1.1//EN" "http://www.w3.org/Graphics/SVG/1.1/DTD/svg11.dtd"><svg t="1555382190523" class="icon" style="" viewBox="0 0 1024 1024" version="1.1" xmlns="http://www.w3.org/2000/svg" p-id="3851" xmlns:xlink="http://www.w3.org/1999/xlink" width="200" height="200"><defs><style type="text/css">@font-face { font-family: uc-nexus-iconfont; src: url("chrome-extension://pogijhnlcfmcppgimcaccdkmbedjkmhi/res/font_9qmmi8b8jsxxbt9.woff") format("woff"), url("chrome-extension://pogijhnlcfmcppgimcaccdkmbedjkmhi/res/font_9qmmi8b8jsxxbt9.ttf") format("truetype"); }
</style></defs><path d="M869.792 364.608h-47.744l-249.824-232.64c0.096-1.12 0.384-2.208 0.384-3.328a65.824 65.824 0 0 0-131.648 0c0 2.336 0.48 4.576 0.672 6.848l-246.016 229.088H147.776c-44.224 0-81.376 37.152-81.376 81.376v427.712c0 47.776 36.544 84.896 81.376 84.896H870.4c44.256 0 80.8-37.12 80.8-81.408V445.376c0.032-44.224-37.152-80.768-81.408-80.768zM466.944 180.704c11.072 8.48 24.768 13.76 39.808 13.76 16.064 0 30.56-5.984 41.984-15.52l183.872 171.84H284.96l181.984-170.08zM896 863.264h-0.608c0 24.736-17.408 42.144-42.176 42.144H164.352c-24.768 3.392-42.208-17.44-42.208-42.144V455.232c0-24.768 17.44-42.208 42.208-42.208H853.76c24.736 0 42.176 17.408 42.176 42.208L896 863.264z" fill="#b2b2b2" p-id="3852"></path><path d="M550.016 759.072H211.04c-16.352 0-26.656 10.304-26.656 26.656 0 16.384 10.336 26.656 26.656 26.656h338.144c16.352 0 26.656-10.272 26.656-26.656 0.832-16.352-10.336-26.656-25.824-26.656z m213.984-118.752H211.04c-16.352 0-26.656 11.2-26.656 26.688 0 16.352 10.336 26.688 26.656 26.688h558.08c16.384 0 26.72-10.336 26.72-26.688 0.832-15.52-15.52-26.688-31.84-26.688z m0-124.736H211.04c-16.352 0-26.656 10.368-26.656 26.656 0 16.416 10.336 26.656 26.656 26.656h558.08c16.384 0 26.72-10.24 26.72-26.656 0.832-16.288-15.52-26.656-31.84-26.656z" fill="#b2b2b2" p-id="3853"></path></svg>