<?xml version="1.0" standalone="no"?><!DOCTYPE svg PUBLIC "-//W3C//DTD SVG 1.1//EN" "http://www.w3.org/Graphics/SVG/1.1/DTD/svg11.dtd"><svg t="1555896087980" class="icon" style="" viewBox="0 0 1024 1024" version="1.1" xmlns="http://www.w3.org/2000/svg" p-id="3014" xmlns:xlink="http://www.w3.org/1999/xlink" width="200" height="200"><defs><style type="text/css"></style></defs><path d="M604.37 431.06H419.63c-11.12 0-20.14 9.02-20.14 20.14 0 11.12 9.02 20.14 20.14 20.14h184.74c11.12 0 20.14-9.02 20.14-20.14 0-11.12-9.01-20.14-20.14-20.14z m0 121.6H419.63c-11.12 0-20.14 9.02-20.14 20.14 0 11.12 9.02 20.14 20.14 20.14h184.74c11.12 0 20.14-9.02 20.14-20.14 0-11.12-9.01-20.14-20.14-20.14z" fill="#69BCFF" p-id="3015"></path><path d="M512 0C229.23 0 0 229.23 0 512s229.23 512 512 512 512-229.23 512-512S794.77 0 512 0z m245.76 451.2c-33.93 0-61.44 27.22-61.44 60.8s27.51 60.8 61.44 60.8V704c0 28.28-22.92 51.2-51.2 51.2H317.44c-28.28 0-51.2-22.92-51.2-51.2V572.8c33.93 0 61.44-27.22 61.44-60.8s-27.51-60.8-61.44-60.8V320c0-28.28 22.92-51.2 51.2-51.2h389.12c28.28 0 51.2 22.92 51.2 51.2v131.2z" fill="#69BCFF" p-id="3016"></path></svg>