<?xml version="1.0" standalone="no"?><!DOCTYPE svg PUBLIC "-//W3C//DTD SVG 1.1//EN" "http://www.w3.org/Graphics/SVG/1.1/DTD/svg11.dtd"><svg t="1555335045158" class="icon" style="" viewBox="0 0 1024 1024" version="1.1" xmlns="http://www.w3.org/2000/svg" p-id="47034" xmlns:xlink="http://www.w3.org/1999/xlink" width="200" height="200"><defs><style type="text/css">@font-face { font-family: uc-nexus-iconfont; src: url("chrome-extension://pogijhnlcfmcppgimcaccdkmbedjkmhi/res/font_9qmmi8b8jsxxbt9.woff") format("woff"), url("chrome-extension://pogijhnlcfmcppgimcaccdkmbedjkmhi/res/font_9qmmi8b8jsxxbt9.ttf") format("truetype"); }
</style></defs><path d="M582.4 551.424L305.792 828.032c-16.384 16.384-43.008 16.384-59.52 0-16.384-16.384-16.384-43.008 0-59.52l276.608-276.608c3.2-3.2 3.2-8.704 0-11.904L246.272 203.392c-16.384-16.384-16.384-43.008 0-59.52 16.384-16.384 43.008-16.384 59.52 0L582.4 420.608c36.096 36.096 36.096 94.72 0 130.816z" fill="#FC7200" p-id="47035"></path><path d="M859.648 551.424L583.04 828.032c-16.384 16.384-43.008 16.384-59.52 0-16.384-16.384-16.384-43.008 0-59.52l276.608-276.608c3.2-3.2 3.2-8.704 0-11.904L523.52 203.392c-16.384-16.384-16.384-43.008 0-59.52 16.384-16.384 43.008-16.384 59.52 0l276.608 276.608c36.096 36.224 36.096 94.848 0 130.944z" fill="#FFC192" p-id="47036"></path></svg>