<?xml version="1.0" standalone="no"?><!DOCTYPE svg PUBLIC "-//W3C//DTD SVG 1.1//EN" "http://www.w3.org/Graphics/SVG/1.1/DTD/svg11.dtd"><svg t="1555325843916" class="icon" style="" viewBox="0 0 1024 1024" version="1.1" xmlns="http://www.w3.org/2000/svg" p-id="9238" xmlns:xlink="http://www.w3.org/1999/xlink" width="200" height="200"><defs><style type="text/css">@font-face { font-family: uc-nexus-iconfont; src: url("chrome-extension://pogijhnlcfmcppgimcaccdkmbedjkmhi/res/font_9qmmi8b8jsxxbt9.woff") format("woff"), url("chrome-extension://pogijhnlcfmcppgimcaccdkmbedjkmhi/res/font_9qmmi8b8jsxxbt9.ttf") format("truetype"); }
</style></defs><path d="M589.195 154.858c-90.353-24.206-184.759-11.804-265.803 34.99-81.034 46.79-138.971 122.311-163.189 212.698-50.004 186.56 61.108 378.983 247.673 428.992 30.157 8.094 60.682 12.076 90.985 12.076 63.515 0 126.076-17.537 182.138-51.769 8.265-5.041 10.874-15.837 5.834-24.082-5.041-8.241-15.815-10.857-24.082-5.813-74.583 45.545-161.87 58.269-245.801 35.766-167.913-44.995-267.91-218.201-222.914-386.093 21.783-81.343 73.946-149.323 146.874-191.425 72.943-42.124 157.871-53.275 239.225-31.502 81.342 21.806 149.299 73.968 191.407 146.874 42.107 72.933 53.287 157.886 31.505 239.247-7.712 28.731-19.668 56.49-35.501 82.501-5.03 8.265-2.407 19.036 5.847 24.082 8.287 5.012 19.031 2.403 24.082-5.865 17.565-28.854 30.834-59.679 39.407-91.649 49.971-186.595-61.127-379.02-247.684-429.018zM516.056 335.59c0-9.678-7.846-17.514-17.514-17.514-9.678 0-17.514 7.83-17.514 17.514l0 192.626c0 9.695 7.83 17.529 17.514 17.529 9.664 0 17.514-7.83 17.514-17.529l0-192.626zM498.52 598.257c-9.662 0-17.514 7.83-17.514 17.52l0 35.02c0 9.678 7.849 17.514 17.514 17.514 9.687 0 17.516-7.83 17.516-17.514l0-35.02c0-9.687-7.83-17.52-17.516-17.52z" p-id="9239" fill="#d81e06"></path></svg>