<?xml version="1.0" standalone="no"?><!DOCTYPE svg PUBLIC "-//W3C//DTD SVG 1.1//EN" "http://www.w3.org/Graphics/SVG/1.1/DTD/svg11.dtd"><svg t="1555896096754" class="icon" style="" viewBox="0 0 1024 1024" version="1.1" xmlns="http://www.w3.org/2000/svg" p-id="3139" xmlns:xlink="http://www.w3.org/1999/xlink" width="200" height="200"><defs><style type="text/css"></style></defs><path d="M938.667 0H85.333C42.667 0 0 42.667 0 85.333v853.334C0 989.867 42.667 1024 85.333 1024h853.334c51.2 0 85.333-42.667 85.333-85.333V85.333C1024 42.667 981.333 0 938.667 0z m-153.6 793.6H238.933c-8.533 0-17.066-8.533-17.066-17.067l8.533-42.666c8.533-25.6 25.6-42.667 42.667-51.2L435.2 622.933c8.533 0 17.067-17.066 17.067-25.6v-17.066c0-8.534-8.534-17.067-17.067-25.6C401.067 537.6 366.933 486.4 366.933 435.2v-68.267c0-85.333 68.267-145.066 153.6-136.533 76.8 8.533 136.534 76.8 136.534 145.067V435.2c0 51.2-25.6 102.4-68.267 119.467-17.067 8.533-25.6 17.066-25.6 25.6v17.066c0 8.534 8.533 25.6 17.067 25.6l170.666 59.734c17.067 8.533 34.134 25.6 42.667 51.2l8.533 42.666c0 8.534-8.533 17.067-17.066 17.067z" fill="#1296DB" p-id="3140"></path><path d="M503.467 622.933L486.4 708.267l25.6 51.2 25.6-42.667-17.067-85.333h-17.066z" fill="#1296DB" p-id="3141"></path></svg>