<?xml version="1.0" standalone="no"?><!DOCTYPE svg PUBLIC "-//W3C//DTD SVG 1.1//EN" "http://www.w3.org/Graphics/SVG/1.1/DTD/svg11.dtd"><svg t="1555896075469" class="icon" style="" viewBox="0 0 1024 1024" version="1.1" xmlns="http://www.w3.org/2000/svg" p-id="2762" xmlns:xlink="http://www.w3.org/1999/xlink" width="200" height="200"><defs><style type="text/css"></style></defs><path d="M804.569 1024H219.406a97.813 97.813 0 0 1-97.5-97.5v-829a97.813 97.813 0 0 1 97.5-97.5H804.57a97.813 97.813 0 0 1 97.5 97.5v828.975a97.813 97.813 0 0 1-97.5 97.5z m0 0" fill="#358EFD" p-id="2763"></path><path d="M219.406 597.337c-14.625-14.625-14.625-36.575 0-51.25l160.938-160.862c14.625-14.625 36.575-14.625 51.25 0l131.562 131.65 187.775-187.738c14.625-14.625 36.575-14.625 51.25 0s14.625 36.575 0 51.25L587.581 594.9c-14.625 14.625-36.562 14.625-51.25 0L407.17 463.238l-134.1 134.1c-17.063 14.625-39.013 14.625-53.638 0z m0 0" fill="#FFFFFF" p-id="2764"></path><path d="M646.094 950.862H377.906c-19.512 0-36.575-17.075-36.575-36.575s17.063-36.575 36.575-36.575h268.188c19.512 0 36.575 17.063 36.575 36.575s-17.013 36.575-36.575 36.575z m0 0" fill="#78B6F9" p-id="2765"></path></svg>