<?xml version="1.0" standalone="no"?><!DOCTYPE svg PUBLIC "-//W3C//DTD SVG 1.1//EN" "http://www.w3.org/Graphics/SVG/1.1/DTD/svg11.dtd"><svg t="1555896557472" class="icon" style="" viewBox="0 0 1024 1024" version="1.1" xmlns="http://www.w3.org/2000/svg" p-id="3942" xmlns:xlink="http://www.w3.org/1999/xlink" width="200" height="200"><defs><style type="text/css"></style></defs><path d="M815.560653 173.562086H208.212349a77.646144 77.646144 0 0 0-77.98814 78.159139V919.819859a77.646144 77.646144 0 0 0 77.98814 77.98814h607.348304a77.646144 77.646144 0 0 0 78.158138-77.98814V251.721225a77.646144 77.646144 0 0 0-78.159138-78.159139z" fill="#D0F7EC" p-id="3943"></path><path d="M815.560653 190.968894a59.216347 59.216347 0 0 1 60.75133 60.752331V919.819859a59.386345 59.386345 0 0 1-60.75133 60.75233H208.212349a59.386345 59.386345 0 0 1-60.75233-60.75233V251.721225a59.386345 59.386345 0 0 1 60.75233-60.752331h607.348304m0-43.51652H208.212349a100.342894 100.342894 0 0 0-104.097852 104.268851V919.819859A100.171896 100.171896 0 0 0 208.213349 1023.918711h607.348304A100.342894 100.342894 0 0 0 919.828504 919.819859V251.721225a100.513892 100.513892 0 0 0-104.268851-104.268851z" fill="#64D5BD" p-id="3944"></path><path d="M407.874148 260.253131a59.216347 59.216347 0 0 1-60.75233-60.581332v-34.129624c8.703904-34.130624 34.130624-60.75233 60.75233-60.75233h43.345522V87.725033A59.216347 59.216347 0 0 1 511.97 26.119712c34.130624 0 52.049426 25.939714 52.049426 60.581332v17.064812h52.048427a59.386345 59.386345 0 0 1 60.75233 60.75233v34.129624a59.216347 59.216347 0 0 1-60.75233 61.605321z" fill="#FFFFFF" p-id="3945"></path><path d="M511.971 52.059426a39.591563 39.591563 0 0 1 34.130624 43.344522v26.109712a8.532906 8.532906 0 0 0 8.702904 8.702904h61.264325a39.591563 39.591563 0 0 1 34.129623 43.345522v34.130624c0 17.064812-17.064812 43.51652-34.129623 43.51652H407.874148a39.761562 39.761562 0 0 1-34.129624-43.51652v-42.833528c0-17.064812 17.064812-43.345522 34.129624-43.345522h60.75233a8.532906 8.532906 0 0 0 8.531906-8.702904v-26.109712a37.372588 37.372588 0 0 1 34.129624-34.129624m0-51.196435a78.670133 78.670133 0 0 0-60.75133 26.109712 122.186653 122.186653 0 0 0-17.064812 52.049426h-25.597718c-43.51652 0-78.159138 34.129624-78.159138 86.690044v34.130624c0 43.345522 34.130624 86.691044 78.159138 86.691044H616.068853c43.345522 0 78.159138-34.129624 78.159138-86.691044v-34.129624c0-43.346522-34.130624-86.692044-78.159138-86.692044h-26.109713c0-45.3925-34.642618-70.819219-77.98814-79.523123zM667.436286 443.875106h-8.703904a58.02136 58.02136 0 0 0-59.727341-53.413411H590.299137v-8.703904A59.216347 59.216347 0 0 0 529.719805 321.006461a66.554266 66.554266 0 0 0-43.515521 17.064812 30.375665 30.375665 0 0 0-8.703904 17.065811v17.064812h-17.064811a59.386345 59.386345 0 0 0-60.751331 60.751331v226.454503a387.037733 387.037733 0 0 0-43.345522-8.531906c-26.109712 0-60.75233 8.531906-69.455234 8.531906a56.144381 56.144381 0 0 0-43.345522 51.195435c0 43.51652 43.345522 52.219424 69.284236 60.752331a153.586307 153.586307 0 0 1 95.564946 60.75133 397.105622 397.105622 0 0 1 43.345522 51.195435H650.198476c0-8.531906 60.75133-112.799756 60.751331-156.145278V503.261451c8.703904-34.130624-8.702904-60.75233-43.345523-60.75233z" fill="#64D5BD" p-id="3946"></path><path d="M676.821183 485.854643c-8.703904 0-8.703904 8.702904-8.703904 17.064812v95.393948h-43.345522V451.212025a17.064812 17.064812 0 0 0-34.129624 0v147.443375h-44.028515v-216.897609a17.064812 17.064812 0 0 0-34.129623 0v216.897609h-34.130624V433.805217a17.064812 17.064812 0 0 0-34.129624 0v286.352843l-34.131623-17.064812a181.402 181.402 0 0 0-52.048427-17.065812c-17.064812 0-43.51552 8.703904-52.049426 8.703904a18.771793 18.771793 0 0 0-17.063812 17.064812c0 8.702904 17.064812 17.064812 25.938714 17.064812a295.738739 295.738739 0 0 1 104.268851 51.195436 288.059824 288.059824 0 0 1 52.047426 69.455234h156.146278c34.129624-60.75133 43.345522-95.393948 43.345523-121.503661l17.064811-225.601512a30.375665 30.375665 0 0 0-8.702904-17.064812z" fill="#FFFFFF" p-id="3947"></path></svg>