<?xml version="1.0" standalone="no"?><!DOCTYPE svg PUBLIC "-//W3C//DTD SVG 1.1//EN" "http://www.w3.org/Graphics/SVG/1.1/DTD/svg11.dtd"><svg t="1555333740286" class="icon" style="" viewBox="0 0 1024 1024" version="1.1" xmlns="http://www.w3.org/2000/svg" p-id="18039" xmlns:xlink="http://www.w3.org/1999/xlink" width="200" height="200"><defs><style type="text/css">@font-face { font-family: uc-nexus-iconfont; src: url("chrome-extension://pogijhnlcfmcppgimcaccdkmbedjkmhi/res/font_9qmmi8b8jsxxbt9.woff") format("woff"), url("chrome-extension://pogijhnlcfmcppgimcaccdkmbedjkmhi/res/font_9qmmi8b8jsxxbt9.ttf") format("truetype"); }
</style></defs><path d="M326.05866667 304.416h32.17066666v69.184h-32.17066666zM326.05866667 403.136h32.17066666v69.184h-32.17066666zM326.05866667 501.84533333h32.17066666v69.184h-32.17066666z" p-id="18040" fill="#efa220"></path><path d="M210.77333333 273.90933333v470.03733334h32.17066667v-0.16h242.13333333V224.98133333l14.12266667-2.51733333-5.64266667-31.66933333-308.37333333 55.008 5.64266667 31.66933333z m32.17066667-5.73866666l209.93066667-37.45066667v480.896h-94.64533334V600.53333333h-32.17066666v111.08266667h-83.12533334z" p-id="18041" fill="#efa220"></path><path d="M867.584 701.13066667l-8.224-1.792-6.89066667 31.41333333 8.46933334 1.856c25.984 5.67466667 58.336 12.8 78.528 19.104l5.472 1.71733333-5.26933334 2.272C916.26666667 765.77066667 881.17333333 778.66666667 816.512 789.19466667c-76.896 12.50133333-179.712 18.83733333-305.696 18.83733333-139.11466667 2.848-239.88266667-6.688-299.97866667-15.2-76.14933333-10.77333333-121.89866667-24.608-139.37066666-33.96266667l-3.2-1.71733333 3.11466666-1.952c14.304-9.12 38.56-17.33333333 72.10666667-24.416l-6.53866667-31.488C85.33333333 710.15466667 54.016 723.47733333 38.4 741.13066667a23.34933333 23.34933333 0 0 0-3.95733333 25.89866666c5.33333333 11.57333333 30.45333333 33.77066667 138.31466666 52.26666667 80 13.74933333 183.584 21.33333333 291.81866667 21.33333333 15.488 0 31.15733333-0.16 46.57066667-0.45866666 318.10133333 0 404.77866667-38.64533333 451.33866666-59.40266667l2.48533334-1.06666667c16.26666667-7.232 23.904-16.81066667 22.70933333-28.48-2.4-23.46666667-36.448-31.81866667-120.096-50.09066666zM664.85333333 488.50133333h32.17066667v56.29866667H664.85333333zM664.85333333 571.104h32.17066667v56.29866667H664.85333333z" p-id="18042" fill="#efa220"></path><path d="M501.088 468.736l23.70133333-2.13333333v258.13333333h283.552V440.864l8.65066667-0.77866667-2.90133333-32L498.13333333 436.69333333z m55.872-5.06666667L776.18133333 443.73333333v248.832h-79.168v-31.66933333H664.85333333v31.66933333H556.96z" p-id="18043" fill="#efa220"></path></svg>