<?xml version="1.0" standalone="no"?><!DOCTYPE svg PUBLIC "-//W3C//DTD SVG 1.1//EN" "http://www.w3.org/Graphics/SVG/1.1/DTD/svg11.dtd"><svg t="1555896273202" class="icon" style="" viewBox="0 0 1024 1024" version="1.1" xmlns="http://www.w3.org/2000/svg" p-id="3816" xmlns:xlink="http://www.w3.org/1999/xlink" width="200" height="200"><defs><style type="text/css"></style></defs><path d="M283.486707 273.355777c-63.022935 0-114.266882-61.309937-114.266882-136.677858S220.463772 0.00006 283.486707 0.00006a35.731963 35.731963 0 0 1 9.21999 1.192999L445.049539 40.244018a39.04996 39.04996 0 0 1 27.704972 47.316951 38.052961 38.052961 0 0 1-46.144953 28.397971L279.86371 78.404979c-17.007982 2.863997-34.559964 26.033973-34.559964 58.27294s17.637982 55.408943 34.559964 58.272939l146.657848-37.553961a37.943961 37.943961 0 0 1 46.144953 28.397971 39.04996 39.04996 0 0 1-27.703972 47.316951l-152.341842 39.049959a36.663962 36.663962 0 0 1-9.13399 1.193999z" fill="#EB6666" p-id="3817"></path><path d="M531.04745 273.355777h-38.09596c-52.523946 0-95.219901-43.779955-95.219902-97.626899v-39.050959c0-53.846944 42.695956-97.626899 95.219902-97.626899h38.09596c52.522946 0 95.219901 43.779955 95.219902 97.626899v39.049959c0 53.847944-42.674956 97.627899-95.219902 97.627899z m-38.09596-156.202838a19.32998 19.32998 0 0 0-19.047981 19.52498v39.049959a19.32998 19.32998 0 0 0 19.047981 19.52598h38.09596a19.32998 19.32998 0 0 0 19.047981-19.52498v-39.050959a19.32998 19.32998 0 0 0-19.047981-19.52498z" fill="#EB6666" p-id="3818"></path><path d="M740.511233 273.355777a36.663962 36.663962 0 0 1-9.21999-1.171999l-152.341842-39.049959a39.04996 39.04996 0 0 1-27.703972-47.316951 37.769961 37.769961 0 0 1 46.144953-28.398971l146.744848 37.532961c17.007982-2.863997 34.559964-26.033973 34.559964-58.272939s-17.637982-55.408943-34.559964-58.27294L597.477382 115.95994a37.922961 37.922961 0 0 1-46.144953-28.397971 39.04996 39.04996 0 0 1 27.703972-47.316951L731.379243 1.194059A35.731963 35.731963 0 0 1 740.511233 0.00006C803.535168 0.00006 854.779115 61.331997 854.779115 136.677919s-51.243947 136.677859-114.267882 136.677858zM429.559555 546.711494H56.406942A56.579941 56.579941 0 0 1 0 490.304552v-130.169865a56.579941 56.579941 0 0 1 56.406942-56.405941h373.151613a56.579941 56.579941 0 0 1 56.406942 56.406941v130.169865a56.579941 56.579941 0 0 1-56.406942 56.405942zM425.21956 1023.999H117.152879a60.919937 60.919937 0 0 1-60.745937-60.745937V655.185382a60.919937 60.919937 0 0 1 60.745937-60.744937H425.21956a60.919937 60.919937 0 0 1 60.745937 60.744937v308.067681A60.919937 60.919937 0 0 1 425.21956 1023.999z m481.626501 0H598.77938a60.919937 60.919937 0 0 1-60.745937-60.745937V655.185382a60.919937 60.919937 0 0 1 60.745937-60.744937h308.066681a60.919937 60.919937 0 0 1 60.745937 60.744937v308.067681A60.919937 60.919937 0 0 1 906.846061 1023.999z m60.745937-477.287506H594.440385a56.579941 56.579941 0 0 1-56.406942-56.406942v-130.169865a56.579941 56.579941 0 0 1 56.406942-56.405941h373.151613A56.579941 56.579941 0 0 1 1023.99894 360.135687v130.169865a56.579941 56.579941 0 0 1-56.406942 56.405942z" fill="#EB6666" p-id="3819"></path></svg>