<?xml version="1.0" standalone="no"?><!DOCTYPE svg PUBLIC "-//W3C//DTD SVG 1.1//EN" "http://www.w3.org/Graphics/SVG/1.1/DTD/svg11.dtd"><svg t="1555896146123" class="icon" style="" viewBox="0 0 1024 1024" version="1.1" xmlns="http://www.w3.org/2000/svg" p-id="3691" xmlns:xlink="http://www.w3.org/1999/xlink" width="200" height="200"><defs><style type="text/css"></style></defs><path d="M845.161 60.235H178.9c-82.1 0-148.781 58.067-148.781 129.506v704.753c0 71.44 66.68 129.506 148.72 129.506h666.263c82.1 0 148.781-58.067 148.781-129.506V189.741c0.12-71.439-66.68-129.506-148.72-129.506zM596.992 778.3H229.195v-51.802h367.917V778.3z m190.464-209.92H229.075v-51.802h558.381v51.802z m0-205.523H229.075v-51.802h558.381v51.802z" fill="#0667D0" p-id="3692"></path><path d="M287.142 0h58.79v180.706h-58.79V0z m390.927 0h58.79v180.706h-58.79V0z" fill="#0667D0" p-id="3693"></path></svg>