<?xml version="1.0" standalone="no"?><!DOCTYPE svg PUBLIC "-//W3C//DTD SVG 1.1//EN" "http://www.w3.org/Graphics/SVG/1.1/DTD/svg11.dtd"><svg t="1555333300910" class="icon" style="" viewBox="0 0 1024 1024" version="1.1" xmlns="http://www.w3.org/2000/svg" p-id="15816" xmlns:xlink="http://www.w3.org/1999/xlink" width="200" height="200"><defs><style type="text/css">@font-face { font-family: uc-nexus-iconfont; src: url("chrome-extension://pogijhnlcfmcppgimcaccdkmbedjkmhi/res/font_9qmmi8b8jsxxbt9.woff") format("woff"), url("chrome-extension://pogijhnlcfmcppgimcaccdkmbedjkmhi/res/font_9qmmi8b8jsxxbt9.ttf") format("truetype"); }
</style></defs><path d="M697.806848 921.329664a27.38176 27.38176 0 0 0-16.422912 5.470208c-55.01952 22.92736-116.219904 35.520512-181.501952 35.520512-204.027904 0-368.45568-122.51136-427.446272-301.641728-0.161792-15.280128-12.63616-27.619328-28.018688-27.619328-15.48288 0-28.033024 12.498944-28.033024 27.91424 0 3.579904 0.702464 6.991872 1.93536 10.1376l-0.043008 0.01024c66.930688 201.904128 257.247232 347.56608 481.605632 347.56608 73.109504 0 142.594048-15.486976 205.385728-43.327488 11.579392-3.25632 20.078592-13.867008 20.078592-26.488832 0-15.212544-8.093696-27.541504-27.539456-27.541504zM499.881984 4.096C353.482752 4.096 221.57312 66.117632 128.980992 165.312512V37.1712h-0.466944c0-12.48256-10.049536-22.603776-22.441984-22.603776-12.394496 0-22.441984 10.123264-22.441984 22.603776 0 1.57696 0.161792 3.11296 0.466944 4.595712v206.385152h194.496512v-0.022528c12.177408-0.253952 21.97504-10.254336 21.97504-22.581248s-9.797632-22.327296-21.97504-22.581248v-0.024576H165.38624c81.272832-88.569856 199.168-142.483456 334.493696-142.483456 256.823296 0 450.92864 194.105344 450.92864 450.92864 0 21.919744-1.447936 43.370496-4.194304 64.294912l0.012288 0.004096c-0.444416 1.984512-0.69632 4.042752-0.69632 6.160384 0 15.562752 12.617728 28.184576 28.182528 28.184576 15.560704 0 28.176384-12.61568 28.182528-28.17024a511.37536 511.37536 0 0 0 4.878336-70.469632C1007.177728 231.2192 780.054528 4.096 499.881984 4.096z m450.92864 662.30272l-84.549632 98.639872-84.549632-98.639872h-42.274816l112.73216 126.8224h-98.639872a14.09024 14.09024 0 0 0 0 28.182528h98.639872v42.272768h-98.639872a14.09024 14.09024 0 0 0 0 28.182528h98.639872V948.224h28.182528v-56.365056h98.639872a14.092288 14.092288 0 0 0 0-28.182528h-98.639872v-42.272768h98.639872a14.09024 14.09024 0 0 0 0-28.182528h-98.639872l112.73216-126.8224h-42.272768z m-604.489728 29.3376c34.902016-30.775296 57.274368-61.526016 67.09248-92.30336 4.347904 5.511168 11.454464 13.75232 21.272576 24.723456 18.536448 19.779584 32.72704 35.69664 42.545152 47.802368l17.999872-14.833664c-5.472256-6.592512-13.654016-15.376384-24.54528-26.374144-19.636224-20.860928-34.924544-36.80256-45.817856-47.80032l-9.82016 9.889792c6.545408-29.669376 9.82016-67.579904 9.82016-113.733632v-95.60064h-19.636224v95.60064c0 57.14944-4.909056 97.816576-14.727168 121.972736-8.742912 25.288704-28.91776 49.989632-60.547072 74.172416l16.36352 16.484352z m162.004992-318.119936h212.731904v-19.779584h-106.364928l17.999872-9.889792c-2.199552-3.29728-4.909056-8.241152-8.183808-14.835712-8.742912-14.268416-15.290368-24.723456-19.636224-31.318016l-19.636224 9.889792c2.172928 4.4032 5.984256 10.45504 11.456512 18.130944 7.61856 12.10368 13.090816 21.428224 16.36352 28.020736h-104.730624v19.781632z m-31.092736 196.1472V328.169472h-124.3648v247.242752h19.636224V347.949056h85.092352v225.814528h19.636224z m206.188544-153.290752c4.347904-6.59456 7.620608-11.538432 9.82016-14.835712l-19.636224-11.538432a7838.625792 7838.625792 0 0 1-47.456256 77.471744h-129.273856v19.779584h234.00448v-19.779584h-81.821696c16.361472-24.158208 27.815936-41.207808 34.363392-51.0976z m19.634176 276.912128v-156.59008h-181.639168v156.588032h21.272576v-26.372096h139.094016v26.372096h21.272576z m-160.366592-46.15168V560.57856h139.094016v90.65472h-139.094016z m-13.090816-245.59616c13.090816 16.482304 26.181632 35.180544 39.272448 56.041472l19.638272-13.185024c-3.274752-4.378624-7.645184-9.889792-13.092864-16.482304-12.017664-16.482304-21.274624-29.10208-27.817984-37.912576l-17.999872 11.538432z" fill="#efa220" p-id="15817"></path></svg>