<?xml version="1.0" standalone="no"?><!DOCTYPE svg PUBLIC "-//W3C//DTD SVG 1.1//EN" "http://www.w3.org/Graphics/SVG/1.1/DTD/svg11.dtd"><svg t="1555896684867" class="icon" style="" viewBox="0 0 1024 1024" version="1.1" xmlns="http://www.w3.org/2000/svg" p-id="4195" xmlns:xlink="http://www.w3.org/1999/xlink" width="200" height="200"><defs><style type="text/css"></style></defs><path d="M0 512a512 512 0 1 0 1024 0A512 512 0 1 0 0 512z" fill="#3392FF" p-id="4196"></path><path d="M661.333 672H316.8c-6.4 0-10.667-4.267-10.667-10.667 0-3.2 1.067-6.4 3.2-8.533L352 615.467V480c0-88.533 71.467-160 160-160s160 71.467 160 160v136.533l42.667 37.334c2.133 2.133 3.2 5.333 3.2 8.533 0 6.4-4.267 10.667-10.667 10.667h-45.867zM458.667 704h106.666c0 29.867-23.466 53.333-53.333 53.333S458.667 733.867 458.667 704z" fill="#FFFFFF" p-id="4197"></path><path d="M512 266.667c23.467 0 42.667 19.2 42.667 42.666V352c0 11.733-9.6 21.333-21.334 21.333h-42.666c-11.734 0-21.334-9.6-21.334-21.333v-42.667c0-23.466 19.2-42.666 42.667-42.666z" fill="#FFFFFF" p-id="4198"></path></svg>