<?xml version="1.0" standalone="no"?><!DOCTYPE svg PUBLIC "-//W3C//DTD SVG 1.1//EN" "http://www.w3.org/Graphics/SVG/1.1/DTD/svg11.dtd"><svg t="1555896740500" class="icon" style="" viewBox="0 0 1024 1024" version="1.1" xmlns="http://www.w3.org/2000/svg" p-id="4321" xmlns:xlink="http://www.w3.org/1999/xlink" width="200" height="200"><defs><style type="text/css"></style></defs><path d="M978.85 483.84a50.27 50.27 0 0 0-47.94-5.818L512 640.93 93.09 464.058a50.502 50.502 0 0 0-48.64 5.818A51.433 51.433 0 0 0 23.274 512v392.378a51.665 51.665 0 0 0 51.432 51.898h874.59a51.665 51.665 0 0 0 51.432-51.898V526.196a52.13 52.13 0 0 0-21.876-42.356z" fill="#EB9732" p-id="4322"></path><path d="M821.527 67.724H202.473A59.345 59.345 0 0 0 144.29 128v290.91L512 574.835l367.71-142.894V128a59.345 59.345 0 0 0-58.183-60.276zM642.095 330.473a35.607 35.607 0 0 0-3.026 3.025L515.025 454.75a11.636 11.636 0 0 1-16.523 0L374.458 333.5l-2.094-3.026a94.487 94.487 0 0 1-23.273-85.644 89.135 89.135 0 0 1 65.629-68.422 86.342 86.342 0 0 1 93.09 37.004 86.807 86.807 0 0 1 93.092-37.004 89.135 89.135 0 0 1 65.629 68.422 95.185 95.185 0 0 1-23.273 85.644z" fill="#EB9732" p-id="4323"></path></svg>