<?xml version="1.0" standalone="no"?><!DOCTYPE svg PUBLIC "-//W3C//DTD SVG 1.1//EN" "http://www.w3.org/Graphics/SVG/1.1/DTD/svg11.dtd"><svg t="1555329308549" class="icon" style="" viewBox="0 0 1024 1024" version="1.1" xmlns="http://www.w3.org/2000/svg" p-id="12620" xmlns:xlink="http://www.w3.org/1999/xlink" width="200" height="200"><defs><style type="text/css">@font-face { font-family: uc-nexus-iconfont; src: url("chrome-extension://pogijhnlcfmcppgimcaccdkmbedjkmhi/res/font_9qmmi8b8jsxxbt9.woff") format("woff"), url("chrome-extension://pogijhnlcfmcppgimcaccdkmbedjkmhi/res/font_9qmmi8b8jsxxbt9.ttf") format("truetype"); }
</style></defs><path d="M945.8733139753213 315.1845141036218c-7.890654669113586-10.596023910000964-24.461030035932907-12.061429440410995-36.9733571582291-2.254474367406148-4.170774771297409 3.2689850243349494-5.974354265222327 5.523459391741098-10.596021101596998 10.145129036519734l-0.4508948734812297 0.4508948734812297c-70.22683161023808 86.7972069770574-416.9647674533903 430.26615779587473-778.0186071043598 0.4508948734812297 0 0 0-0.4508948734812297-0.4508920650772641-0.4508948734812297-0.4508948734812297-0.9017897469624594-0.9017897469624594-1.3526846204436886-1.3526846204436886-1.8035794939249188-9.694234163038507-12.512324313892227-26.828228121709365-15.668585619856863-37.42425203171033-7.439759795632357-10.596023910000964 8.341549542594818-11.497810848559455 24.461030035932907-2.254471559002183 36.9733571582291 0.4508948734812297 0.4508948734812297 0.4508948734812297 0.4508948734812297 0.4508948734812297 0.9017869385584939 0.9017897469624594 0.9017897469624594 1.8035794939249188 2.254471559002183 2.818090150853719 3.268987832738914 42.49681374156624 46.21669363938241 82.62643220575998 83.97911682620368 121.85426092299126 115.42901178428774l-96.49144114009592 78.45565743446257c-9.243339289557275 7.439759795632357-10.596023910000964 21.19204501159797-3.2689850243349494 29.98449223607798 7.439759795632357 9.243339289557275 21.19204501159797 10.596023910000964 29.984489427674013 3.2689850243349494l102.91669027879944-83.97911682620368c0.9017897469624594-0.4508948734812297 1.3526846204436886-1.3526846204436886 1.8035766855209532-1.8035794939249188 50.274747500713495 35.057053945933866 98.8586364174684 58.616297043308315 145.4135040203657 73.38309572460666L354.86323769433415 693.3723477132621c-3.2689850243349494 11.497810848559455 3.7198798978161784 23.55924309737443 15.217690746375636 26.264609529857825 11.497810848559455 3.2689850243349494 23.55924309737443-3.7198798978161784 26.264609529857825-15.217693554779604l29.53359736259674-123.7705641352865c71.12862135720053 14.31590380781714 136.62105960428963 8.341549542594818 195.80097243104555-10.145126228115767v0.4508948734812297l55.46003292893968 129.2940207186236c4.621669644778637 11.046915975078232 17.5848888321521 16.119480493338095 28.18091274215306 11.497810848559455 11.046915975078232-4.621669644778637 16.119480493338095-17.5848888321521 11.497810848559455-28.180909933749085l-54.44551946360694-127.37772031473237c50.274747500713495-20.74115013811674 95.58965139313344-49.37295775375102 135.26837498384597-79.47017089979533 0.9017897469624594 1.8035794939249188 1.8035794939249188 3.2689850243349494 3.2689850243349494 4.621669644778637l73.83398778968392 77.55386768750012c8.341549542594818 8.79244441607605 21.755663603449495 8.79244441607605 30.435384301155246 0.9017897469624594 8.79244441607605-8.341549542594818 8.79244441607605-21.755663603449495 0.9017897469624594-30.435384301155246l-73.83398778968392-77.55386768750012-1.3526846204436886-1.3526846204436886c47.11848338634486-39.22782871723128 83.97911682620368-78.00476256098135 110.80734494791301-102.91668747039546 1.3526846204436886-1.3526846204436886 2.254471559002183-2.254471559002183 3.2689850243349494-3.7198827062201443 0.4508948734812297-0.9017897469624594 0.9017897469624594-1.3526846204436886 1.3526846204436886-2.254471559002183 5.072564518259867-8.79244441607605 5.072564518259867-18.93757345259578-0.4508948734812297-26.377333248228144z" fill="#b2b2b2" p-id="12621"></path></svg>