<?xml version="1.0" standalone="no"?><!DOCTYPE svg PUBLIC "-//W3C//DTD SVG 1.1//EN" "http://www.w3.org/Graphics/SVG/1.1/DTD/svg11.dtd"><svg t="1555382229626" class="icon" style="" viewBox="0 0 1024 1024" version="1.1" xmlns="http://www.w3.org/2000/svg" p-id="4873" xmlns:xlink="http://www.w3.org/1999/xlink" width="200" height="200"><defs><style type="text/css">@font-face { font-family: uc-nexus-iconfont; src: url("chrome-extension://pogijhnlcfmcppgimcaccdkmbedjkmhi/res/font_9qmmi8b8jsxxbt9.woff") format("woff"), url("chrome-extension://pogijhnlcfmcppgimcaccdkmbedjkmhi/res/font_9qmmi8b8jsxxbt9.ttf") format("truetype"); }
</style></defs><path d="M936.94589844 399.08164062L582.90839844 91.4890625C563.89589844 72.47216797 538.59658203 62 511.68798828 62c-26.91386719 0-52.20791016 10.47216797-70.08046875 28.43613281L87.95058594 398.16230469c-15.78339844 15.02578125-24.46699219 35.18701172-24.46699219 56.784375 0 43.27646484 35.21074219 78.48720703 78.49248047 78.48720703h11.21220703v316.43789062c0 61.82929688 50.29892578 112.12822266 112.12910156 112.12822266h493.36611328c61.82929688 0 112.12822266-50.29892578 112.12822266-112.12822266V533.43388672h11.21220703c43.28261719 0 78.49248047-35.22919922 78.49248047-78.48720703 0-20.42929688-7.89169922-39.82763672-23.57050781-55.86503907z m-54.92197266 89.50166016h-56.06542969v361.28759766c0 37.08984375-30.17900391 67.27412109-67.275 67.27412109H265.31738281c-37.09599609 0-67.275-30.18427734-67.275-67.27412109V488.58330078H141.97607422c-18.5484375 0-33.64189453-15.09345703-33.64189453-33.63662109 0-9.19863281 3.74853516-17.83125 9.80507812-23.61708985L472.17324219 123.19912109c10.55917969-10.54072266 24.57685547-16.34414063 39.51474609-16.34414062 14.93701172 0 28.95029297 5.80341797 40.65556641 17.42080078l353.78876953 307.32539063c6.16816406 6.34658203 9.534375 14.62060547 9.534375 23.34550781-0.00087891 18.54404297-15.09521484 33.63662109-33.64277344 33.63662109z" fill="#b2b2b2" p-id="4874"></path><path d="M363.03066406 682.93671875c0 82.19003906 66.77929688 148.96933594 148.96933594 148.96933594s148.96933594-66.77929688 148.96933594-148.96933594c0-82.19091797-66.77929688-148.96933594-148.96933594-148.96933594s-148.96933594 66.77929688-148.96933594 148.96933594z m256.84365235 0c0 61.64208984-51.36855469 107.8734375-107.87431641 107.8734375-61.64208984 0-107.87431641-51.36855469-107.87431641-107.8734375 0-56.50576172 51.36767578-107.87431641 107.87431641-107.87431641 61.64384766 0 107.87431641 46.23310547 107.87431641 107.87431641z" fill="#b2b2b2" p-id="4875"></path></svg>