<?xml version="1.0" standalone="no"?><!DOCTYPE svg PUBLIC "-//W3C//DTD SVG 1.1//EN" "http://www.w3.org/Graphics/SVG/1.1/DTD/svg11.dtd"><svg t="1555382147275" class="icon" style="" viewBox="0 0 1024 1024" version="1.1" xmlns="http://www.w3.org/2000/svg" p-id="2781" xmlns:xlink="http://www.w3.org/1999/xlink" width="200" height="200"><defs><style type="text/css">@font-face { font-family: uc-nexus-iconfont; src: url("chrome-extension://pogijhnlcfmcppgimcaccdkmbedjkmhi/res/font_9qmmi8b8jsxxbt9.woff") format("woff"), url("chrome-extension://pogijhnlcfmcppgimcaccdkmbedjkmhi/res/font_9qmmi8b8jsxxbt9.ttf") format("truetype"); }
</style></defs><path d="M465.72032 133.48864L42.28608 484.20352h44.86144c-0.03072 1.01888-0.30208 1.7152-0.30208 2.80576v376.91904c0 37.10976 30.06464 67.13856 67.15904 67.13856h623.42656c37.07904 0 67.13856-30.0288 67.13856-67.13856V484.20352h44.53888L465.72032 133.48864z m332.7744 356.56192v333.5424c0 32.59904-26.40896 58.9824-58.98752 58.9824H191.91296c-32.58368 0-58.99264-26.37824-58.99264-58.9824V492.51328l-0.11264-34.90304L465.7152 181.9904l332.75392 275.54816 0.0256 32.512z" fill="#b2b2b2" p-id="2782"></path><path d="M609.53088 113.21344l-84.16256 69.68832 363.74016 301.30176h-44.53888v353.41824h48.01024c33.71008 0 61.09184-27.2896 61.09184-60.94848V431.72352h40.3712l-384.512-318.51008z" fill="#b2b2b2" p-id="2783"></path><path d="M224.88064 431.72352h40.74496c-0.03072 0.95744-0.256 1.56672-0.256 2.54976v342.4c0 33.65888 27.2896 60.94848 61.0048 60.94848h470.20032c1.12128-4.54144 1.78688-9.26208 1.78688-14.14656V490.06592l0.03072-32.36864-302.39232-250.47552-271.11936 224.50176z" fill="#b2b2b2" p-id="2784"></path></svg>