<?xml version="1.0" standalone="no"?><!DOCTYPE svg PUBLIC "-//W3C//DTD SVG 1.1//EN" "http://www.w3.org/Graphics/SVG/1.1/DTD/svg11.dtd"><svg t="1555328854304" class="icon" style="" viewBox="0 0 1024 1024" version="1.1" xmlns="http://www.w3.org/2000/svg" p-id="11180" xmlns:xlink="http://www.w3.org/1999/xlink" width="200" height="200"><defs><style type="text/css">@font-face { font-family: uc-nexus-iconfont; src: url("chrome-extension://pogijhnlcfmcppgimcaccdkmbedjkmhi/res/font_9qmmi8b8jsxxbt9.woff") format("woff"), url("chrome-extension://pogijhnlcfmcppgimcaccdkmbedjkmhi/res/font_9qmmi8b8jsxxbt9.ttf") format("truetype"); }
</style></defs><path d="M839.168 232.106667c-1.877333 0-189.952-20.650667-320.682667-120.832a22.016 22.016 0 0 0-26.965333 0C361.472 210.944 172.714667 232.106667 170.666667 232.106667A23.552 23.552 0 0 0 150.357333 256a1125.205333 1125.205333 0 0 0 42.325334 281.770667 711.68 711.68 0 0 0 102.4 220.330666 429.738667 429.738667 0 0 0 209.92 154.965334 427.52 427.52 0 0 0 209.92-154.794667 709.973333 709.973333 0 0 0 102.4-220.330667A1129.984 1129.984 0 0 0 859.648 256a23.552 23.552 0 0 0-20.48-24.064z m-161.962667 193.365333L493.909333 627.541333a27.648 27.648 0 0 1-18.773333 10.410667h-2.56a28.672 28.672 0 0 1-18.090667-6.485333l-117.76-102.4a27.136 27.136 0 0 1 17.066667-47.786667 26.282667 26.282667 0 0 1 17.066667 6.485333l96.085333 83.968L633.856 392.533333a27.136 27.136 0 0 1 48.64 12.970667 26.794667 26.794667 0 0 1-5.290667 20.138667z m0 0" p-id="11181" fill="#b2b2b2"></path></svg>