<?xml version="1.0" standalone="no"?><!DOCTYPE svg PUBLIC "-//W3C//DTD SVG 1.1//EN" "http://www.w3.org/Graphics/SVG/1.1/DTD/svg11.dtd"><svg t="1555322257240" class="icon" style="" viewBox="0 0 1024 1024" version="1.1" xmlns="http://www.w3.org/2000/svg" p-id="7580" xmlns:xlink="http://www.w3.org/1999/xlink" width="200" height="200"><defs><style type="text/css">@font-face { font-family: uc-nexus-iconfont; src: url("chrome-extension://pogijhnlcfmcppgimcaccdkmbedjkmhi/res/font_9qmmi8b8jsxxbt9.woff") format("woff"), url("chrome-extension://pogijhnlcfmcppgimcaccdkmbedjkmhi/res/font_9qmmi8b8jsxxbt9.ttf") format("truetype"); }
</style></defs><path d="M780.993942 419.328367l-14.94948 0 0 0L631.291408 419.328367l0 0L376.921024 419.328367 376.921024 269.642207c0-49.581232 60.318784-104.745622 134.659933-104.745622 74.368778 0 134.754077 55.165414 134.754077 104.745622l0 36.789904c0 0.214894 0 0.435928 0 0.645706 0 0.199545 0 0.418532 0 0.650823l0 6.840802 0.530073 0c3.579525 25.388227 25.418926 44.89449 51.773154 44.89449 26.446325 0 48.220235-19.506263 51.867298-44.89449l0.595564 0 0-44.926212c0-115.713418-107.280352-209.525014-239.518119-209.525014-132.210138 0-239.457744 93.812619-239.457744 209.525014l0 149.686161-29.960359 0c-49.549509 0-89.74907 40.205701-89.74907 89.787956l0 359.218338c0 49.583279 40.199561 89.773629 89.74907 89.773629l538.831089 0c49.617048 0 89.781816-40.190351 89.781816-89.773629L870.777805 509.116323C870.775758 459.534068 830.61099 419.328367 780.993942 419.328367zM556.518425 750.851946l0 40.933271c0 25.716708-20.1182 46.550199-44.936445 46.550199-24.75787 0-44.910862-20.833491-44.910862-46.550199l0-40.933271c-35.361369-16.570397-59.887972-52.175313-59.887972-93.429903 0-57.116859 46.962591-103.433744 104.798834-103.433744 57.896618 0 104.792695 46.316885 104.792695 103.433744C616.374674 698.676633 591.913563 734.281549 556.518425 750.851946z" fill="#707070" p-id="7581"></path></svg>