<?xml version="1.0" standalone="no"?><!DOCTYPE svg PUBLIC "-//W3C//DTD SVG 1.1//EN" "http://www.w3.org/Graphics/SVG/1.1/DTD/svg11.dtd"><svg t="1555333838933" class="icon" style="" viewBox="0 0 1024 1024" version="1.1" xmlns="http://www.w3.org/2000/svg" p-id="18893" xmlns:xlink="http://www.w3.org/1999/xlink" width="200" height="200"><defs><style type="text/css">@font-face { font-family: uc-nexus-iconfont; src: url("chrome-extension://pogijhnlcfmcppgimcaccdkmbedjkmhi/res/font_9qmmi8b8jsxxbt9.woff") format("woff"), url("chrome-extension://pogijhnlcfmcppgimcaccdkmbedjkmhi/res/font_9qmmi8b8jsxxbt9.ttf") format("truetype"); }
</style></defs><path d="M512 969.386667c-61.44 0-129.706667-13.653333-184.32-40.96C102.4 826.026667 0 559.786667 102.4 327.68c47.786667-102.4 129.706667-184.32 232.106667-225.28 20.48-6.826667 34.133333 0 47.786666 20.48s0 34.133333-20.48 47.786667C266.24 197.973333 197.973333 273.066667 163.84 354.986667c-88.746667 191.146667 0 423.253333 191.146667 512 95.573333 40.96 197.973333 47.786667 293.546666 6.826666 95.573333-34.133333 170.666667-109.226667 211.626667-197.973333 6.826667-20.48 27.306667-27.306667 47.786667-13.653333 20.48 6.826667 27.306667 27.306667 13.653333 47.786666-47.786667 109.226667-136.533333 191.146667-252.586667 238.933334-47.786667 6.826667-102.4 20.48-157.013333 20.48z" fill="#efa220" p-id="18894"></path><path d="M525.653333 566.613333c-40.96 0-68.266667-27.306667-61.44-61.44L477.866667 116.053333c0-13.653333 6.826667-34.133333 20.48-40.96s27.306667-13.653333 40.96-13.653333c225.28 13.653333 409.6 197.973333 423.253333 423.253333 0 34.133333-20.48 61.44-54.613333 61.44l-382.293334 20.48zM546.133333 129.706667l-13.653333 368.64 361.813333-20.48c-13.653333-184.32-163.84-334.506667-348.16-348.16z m0-6.826667z" fill="#efa220" p-id="18895"></path></svg>