<?xml version="1.0" standalone="no"?><!DOCTYPE svg PUBLIC "-//W3C//DTD SVG 1.1//EN" "http://www.w3.org/Graphics/SVG/1.1/DTD/svg11.dtd"><svg t="1555896117109" class="icon" style="" viewBox="0 0 1024 1024" version="1.1" xmlns="http://www.w3.org/2000/svg" p-id="3392" xmlns:xlink="http://www.w3.org/1999/xlink" width="200" height="200"><defs><style type="text/css"></style></defs><path d="M509.913 1019.086c-279.302 0-505.721-226.466-505.721-505.804S230.612 7.496 509.913 7.496c279.305 0 505.724 226.448 505.724 505.786s-226.42 505.804-505.724 505.804z m0-948.37c-244.392 0-442.505 198.143-442.505 442.566S265.52 955.85 509.913 955.85 952.42 757.706 952.42 513.282 754.305 70.717 509.913 70.717zM699.56 544.9H541.524v158.06c0 17.449-14.152 31.605-31.608 31.605-17.457 0-31.606-14.156-31.606-31.606V544.9H320.27c-17.457 0-31.608-14.154-31.608-31.618 0-17.451 14.154-31.605 31.608-31.605h158.04V323.61c0-17.449 14.152-31.598 31.606-31.598 17.458 0 31.608 14.147 31.608 31.598v158.067h158.035c17.459 0 31.608 14.154 31.608 31.605 0 17.464-14.15 31.618-31.608 31.618z" p-id="3393" fill="#f4ea2a"></path></svg>