<?xml version="1.0" standalone="no"?><!DOCTYPE svg PUBLIC "-//W3C//DTD SVG 1.1//EN" "http://www.w3.org/Graphics/SVG/1.1/DTD/svg11.dtd"><svg t="1555896678114" class="icon" style="" viewBox="0 0 1027 1024" version="1.1" xmlns="http://www.w3.org/2000/svg" p-id="4070" xmlns:xlink="http://www.w3.org/1999/xlink" width="200.5859375" height="200"><defs><style type="text/css"></style></defs><path d="M940.066 1024H88.13C39.344 1024 0.525 976.262 0.525 916.459V107.541C0.525 48.262 39.869 0 88.13 0h851.935c48.786 0 87.606 47.738 87.606 107.541v808.918c0 59.279-38.82 107.541-87.606 107.541z" fill="#DE85E1" p-id="4071"></path><path d="M829.902 373.508c-18.361-30.95-28.853-48.787-35.148-59.278-4.721-8.394-14.688-13.115-24.656-11.541-44.065 7.344-164.196 14.688-198.295-112.263-2.623-9.442-11.54-16.262-22.033-16.262H480c-11.016 0-20.459 6.82-24.131 17.311-12.59 41.968-58.23 140.59-196.721 111.214-9.968-2.099-19.935 2.098-25.705 10.491-9.968 16.787-26.23 43.541-36.722 61.377-5.77 9.443-4.196 22.033 4.197 29.377 32 29.902 97.574 112.263-1.574 217.705-7.344 7.87-8.393 18.886-3.147 28.853l37.77 61.901c5.246 8.918 16.263 13.115 26.754 10.492 41.443-11.016 148.46-26.23 194.623 110.689 3.148 9.442 12.066 16.262 22.558 16.262h72.393c9.967 0 18.885-6.295 22.557-15.738 13.115-40.393 59.804-141.639 195.673-112.262 9.967 2.098 19.934-2.098 25.705-11.016 9.442-16.263 25.18-42.492 34.622-58.754 5.246-8.918 4.197-19.935-2.622-27.804-29.378-32.524-93.902-123.803 0.524-221.901 7.344-7.87 8.918-19.935 3.148-28.853z m-316.853 262.82c-68.721 0-124.328-55.607-124.328-124.328s55.607-124.328 124.328-124.328S637.377 443.28 637.377 512 581.77 636.328 513.049 636.328z" fill="#FFFFFF" p-id="4072"></path></svg>