<?xml version="1.0" standalone="no"?><!DOCTYPE svg PUBLIC "-//W3C//DTD SVG 1.1//EN" "http://www.w3.org/Graphics/SVG/1.1/DTD/svg11.dtd"><svg t="1555321750423" class="icon" style="" viewBox="0 0 1024 1024" version="1.1" xmlns="http://www.w3.org/2000/svg" p-id="6654" xmlns:xlink="http://www.w3.org/1999/xlink" width="200" height="200"><defs><style type="text/css">@font-face { font-family: uc-nexus-iconfont; src: url("chrome-extension://pogijhnlcfmcppgimcaccdkmbedjkmhi/res/font_9qmmi8b8jsxxbt9.woff") format("woff"), url("chrome-extension://pogijhnlcfmcppgimcaccdkmbedjkmhi/res/font_9qmmi8b8jsxxbt9.ttf") format("truetype"); }
</style></defs><path d="M502.957 536.006c132.799 0 240.872-105.904 240.872-236.082 0-130.163-108.072-236.055-240.872-236.055s-240.848 105.91-240.848 236.055c0 130.16 108.054 236.083 240.849 236.083l-0.001-0.001z m-92.361 43.214c-167.727 0-292.957 113.104-292.957 277.372v17.686c0 85.854 134.218 85.854 304.102 85.854H602.22c163.199 0 304.14 0 304.14-85.854v-17.685c0-164.239-125.252-277.372-292.956-277.372H410.586h0.009l0.001-0.001z" p-id="6655" fill="#707070"></path></svg>