<?xml version="1.0" standalone="no"?><!DOCTYPE svg PUBLIC "-//W3C//DTD SVG 1.1//EN" "http://www.w3.org/Graphics/SVG/1.1/DTD/svg11.dtd"><svg t="1555333571907" class="icon" style="" viewBox="0 0 1024 1024" version="1.1" xmlns="http://www.w3.org/2000/svg" p-id="16944" xmlns:xlink="http://www.w3.org/1999/xlink" width="200" height="200"><defs><style type="text/css">@font-face { font-family: uc-nexus-iconfont; src: url("chrome-extension://pogijhnlcfmcppgimcaccdkmbedjkmhi/res/font_9qmmi8b8jsxxbt9.woff") format("woff"), url("chrome-extension://pogijhnlcfmcppgimcaccdkmbedjkmhi/res/font_9qmmi8b8jsxxbt9.ttf") format("truetype"); }
</style></defs><path d="M744.6 613.7H663v-41.1h78.5c2.1 0 4.7 0 6.8-0.5 11.1-1.6 18.4-12.6 16.3-23.7-2.6-10-10.5-16.3-21.6-16.3h-70.6l-0.5-1.6c1-0.5 2.6-1.6 3.7-2.6l57.9-57.9c9-8.4 16.9-16.9 25.3-25.3 11.1-11.6 6.3-30.5-9-34.2-7.9-2.1-14.7 0.5-20.5 6.3-27.4 27.9-54.8 55.3-82.2 82.7-1.1 1.1-2.6 2.6-3.2 3.7-1.1 0-1.6 0.5-2.1 0.5-0.5-1.6-1.1-3.2-2.1-4.2l-81.1-81.1c-1.6-1.6-3.2-3.2-4.7-4.2-9.5-7.4-23.2-4.7-29.5 5.8-4.7 8.4-3.2 18.4 4.2 25.8l82.7 82.7c0.5 1 1.6 2.1 3.2 3.7h-71.6c-11.6 0-20.5 7.4-21.6 17.9-1 12.6 7.9 22.7 21.6 22.7h79.5v41.1c-1.6 0-3.2 0-4.7-0.5h-74.8c-5.3 0-10 1.1-14.2 4.7-6.3 5.3-9 14.2-5.8 22.1 2.6 8.4 10.5 13.7 19 13.7h81.6V734c0 6.8 2.1 12.1 7.4 16.9 6.8 5.3 14.2 6.3 21.6 3.2 7.9-4.2 12.1-10.5 12.1-19V654H744c3.2 0 6.8-0.5 10-2.1 8.4-3.7 13.2-13.2 10-21.6-2.1-9.8-9.4-16.6-19.4-16.6zM64 415.6v39c0 7.9 6.3 14.2 14.2 14.2h211.2c7.9-23.7 18.4-46.4 31.6-68H78.7c-7.9 0.6-14.7 6.9-14.7 14.8zM137.2 194.9h431.4c7.9 0 14.2-6.3 14.2-14.2v-39c0-7.9-6.3-14.2-14.2-14.2H137.2c-7.9 0-14.2 6.3-14.2 14.2v39c0 7.9 6.3 14.2 14.2 14.2zM176.7 537.8v0.5c-7.9 0-14.2 6.3-14.2 14.2v39c0 7.9 6.3 14.2 14.2 14.2H270c0-4.7-0.5-9.5-0.5-14.2 0-17.4 1.6-35.3 4.2-53.7h-97zM117.7 675.3v0.5c-7.9 0-14.2 6.3-14.2 14.2v39c0 7.9 6.3 14.2 14.2 14.2h183.8c-9.5-22.1-17.4-44.8-22.7-68H117.7zM182 278.7v39c0 7.9 6.3 14.2 14.2 14.2h177.5c25.8-26.3 55.3-49.5 87.4-68h-265c-7.8 0-14.1 6.8-14.1 14.8z" p-id="16945" fill="#efa220"></path><path d="M643.9 268.6c-173.8 0-316 141.3-316 313.9 0 172.7 142.2 313.9 316 313.9S960 755.1 960 582.5c0-172.6-142.2-313.9-316.1-313.9z m0 583.1c-149 0-270.9-121.1-270.9-269.1 0-148 121.9-269.1 270.9-269.1 149 0 270.9 121.1 270.9 269.1 0.1 148-121.9 269.1-270.9 269.1z" p-id="16946" fill="#efa220"></path></svg>