<?xml version="1.0" standalone="no"?><!DOCTYPE svg PUBLIC "-//W3C//DTD SVG 1.1//EN" "http://www.w3.org/Graphics/SVG/1.1/DTD/svg11.dtd"><svg t="1557110255190" class="icon" style="" viewBox="0 0 1024 1024" version="1.1" xmlns="http://www.w3.org/2000/svg" p-id="3076" xmlns:xlink="http://www.w3.org/1999/xlink" width="200" height="200"><defs><style type="text/css">@font-face { font-family: uc-nexus-iconfont; src: url("chrome-extension://pogijhnlcfmcppgimcaccdkmbedjkmhi/res/font_9qmmi8b8jsxxbt9.woff") format("woff"), url("chrome-extension://pogijhnlcfmcppgimcaccdkmbedjkmhi/res/font_9qmmi8b8jsxxbt9.ttf") format("truetype"); }
</style></defs><path d="M511.50848 1.00352C228.9664 1.00352 0 229.96992 0 512.512 0 795.0336 228.9664 1024 511.50848 1024 794.0096 1024 1022.976 795.0336 1022.976 512.512c0-282.54208-228.9664-511.50848-511.488-511.50848zM716.5952 667.2384a35.96288 35.96288 0 0 1-50.95424 50.76992l-154.13248-154.56256-154.15296 154.56256a35.69664 35.69664 0 0 1-25.47712 10.58816 35.96288 35.96288 0 0 1-25.47712-61.3376l154.35776-154.74688-154.35776-154.76736a35.96288 35.96288 0 0 1 50.95424-50.74944l154.15296 154.56256 154.13248-154.66496a35.96288 35.96288 0 0 1 50.95424 50.76992l-154.33728 154.8288 154.33728 154.74688z" fill="#FF6159" p-id="3077"></path></svg>