<?xml version="1.0" standalone="no"?><!DOCTYPE svg PUBLIC "-//W3C//DTD SVG 1.1//EN" "http://www.w3.org/Graphics/SVG/1.1/DTD/svg11.dtd"><svg t="1556346001950" class="icon" style="" viewBox="0 0 1351 1024" version="1.1" xmlns="http://www.w3.org/2000/svg" p-id="3557" data-spm-anchor-id="a313x.7781069.0.i1" xmlns:xlink="http://www.w3.org/1999/xlink" width="263.8671875" height="200"><defs><style type="text/css"></style></defs><path d="M674.724 201.318c101.11 0 190.781 48.937 246.681 124.416l39.117 10.486c-58.388-96.84-164.526-161.597-285.798-161.597A331.848 331.848 0 0 0 513.249 216.3l39.045 10.465a305.613 305.613 0 0 1 122.42-25.447z m201.503-17.367l21.422 17.367 6.594-26.03 23.982-14.018-23.982-14.019-6.594-26.03-21.422 17.367-28.058-2.068 10.742 24.75-10.732 24.76 28.058-2.079z m-371.57-58.265l-22.025-15.34-4.813 27.167-22.549 16.824 24.32 11.674 8.09 25.733 19.835-19.958 27.545-0.911-12.052-24.003 8.94-26.306-27.29 5.12z m206.255-37.52l-16.323-21.32-12.84 24.413-26.594 9.175 19.63 18.504-0.112 26.982 24.965-12.974 26.521 7.506-4.198-26.522 16.517-22.354-27.566-3.41z m298.547 167.63l-23.132-16.016-3.287 26.788-21.801 15.872 25.231 12.452 9.657 25.845 18.882-19.087 27.771 0.082-13.558-24.248 7.496-25.785-27.259 4.096z m300.442 201.748L150.067 146.554a53.37 53.37 0 0 0-65.362 37.766L1.833 493.804a53.412 53.412 0 0 0 37.734 65.402l1159.824 310.969a53.36 53.36 0 0 0 65.372-37.745l82.862-309.494a53.391 53.391 0 0 0-37.724-65.392z m8.51 71.383l-75.961 283.689a40.028 40.028 0 0 1-49.019 28.324L59.361 536.883a40.059 40.059 0 0 1-28.303-49.05l75.97-283.699a40.028 40.028 0 0 1 49.02-28.313l1134.049 304.056a40.049 40.049 0 0 1 28.303 49.06zM674.723 27.77c222.29 0 409.262 151.091 464.025 356.24l29.533 7.915C1115.689 167.875 914.688 1.065 674.734 1.065c-145.5 0-276.664 61.338-369.121 159.56l29.491 7.905c86.917-86.968 207.002-140.76 339.62-140.76z m122.46 762.204a305.562 305.562 0 0 1-122.45 25.446c-101.1 0-190.771-48.926-246.682-124.416l-39.106-10.485c58.388 96.84 164.526 161.597 285.798 161.597A331.848 331.848 0 0 0 836.23 800.44l-39.045-10.465z m-286.3 55.44l-21.238-17.327-6.554 25.969-23.767 13.988 23.767 13.977 6.554 25.98 21.238-17.327 27.832 2.069-10.65-24.7 10.65-24.698-27.832 2.068z m163.758 82.237l16.2 21.279 12.728-24.372 26.378-9.134-19.466-18.473 0.113-26.92-24.76 12.953-26.318-7.496 4.168 26.47-16.374 22.293 27.341 3.4zM337.336 759.828l21.76 17.572 5.14-26.419 22.693-14.285-24.085-14.162-7.731-26.388-20.03 17.674-27.473-2.027 11.714 25.077-9.247 25.13 27.27-2.172zM674.734 988.98c-222.27 0-409.242-151.101-464.026-356.25l-29.521-7.915c52.592 224.051 253.603 390.86 493.547 390.86 145.5 0 276.675-61.326 369.121-159.559l-29.49-7.905c-86.928 86.968-207.002 140.77-339.641 140.77z m192.901-97.976l21.893 15.33 4.71-27.075 22.355-16.743-24.167-11.673-8.069-25.672-19.65 19.866-27.341 0.88 12.001 23.941-8.806 26.215 27.074-5.07z" fill="#ffffff" p-id="3558"></path><path d="M197.775 399.34l-5.611 20.94 47.882 12.831 5.612-20.94-47.883-12.831z m35.922 57.456l-47.882-12.82-3.471 12.964-25.436-6.82 33.679-125.676 73.318 19.65 5.468-20.449 25.938 6.943-5.478 20.45 74.056 19.845-33.475 124.928-25.436-6.81 3.277-12.227-48.63-13.025-13.158 49.121-25.928-6.942 13.158-49.132z m32.277-16.732l48.63 13.025 5.611-20.95-48.63-13.026-5.611 20.951z m60.313-30.618l5.755-21.442-48.63-13.025-5.734 21.442 48.62 13.036z m-68.812-41.42l-47.872-12.82-5.735 21.442 47.872 12.83 5.735-21.452z m139.724-45.67l-12.953 48.373-25.436-6.82 6.615-24.678-163.584-43.827-6.943 25.927-25.436-6.82 13.302-49.623 92.508 24.781a194.15 194.15 0 0 0-2.673-15.944l28.877 2.93c0.522 6.02 0.85 12.8 0.973 20.305l94.75 25.395z m80.989 125.654L446.72 565.463l-25.19-6.758 29.593-110.46c-12.257 17.829-25.354 33.823-39.874 48.108l-3.758-29.87c21.975-18.166 40.642-40.96 55.869-67.87l-30.669-8.223 6.615-24.679 31.673 8.48 12.288-45.876 25.19 6.738-12.288 45.875 26.675 7.158-6.615 24.678-26.685-7.137-3.41 12.718a629.76 629.76 0 0 1 23.03 49.725l-20.726 18.504c-3.943-15.227-7.168-28.119-10.25-38.564z m54.384-80.302l57.856 15.504a184.259 184.259 0 0 0-4.925-23.501l27.883 2.662c1.229 8.346 1.946 17.623 2.478 27.648l53.863 14.439-6.35 23.685-68.33-18.31c-16.815 16.876-30.977 28.857-42.63 36.424 12.923 2.663 25.907 5.069 38.636 7.414a249.303 249.303 0 0 0 23.429-22.59l17.94 16.835c-38.236 42.936-83.66 66.847-136.601 71.905l-8.458-25.251c29.153-2.08 55.582-9.964 79.36-23.9l-48.978-10.722 0.379-22.344a17.408 17.408 0 0 0 5.345-0.983c10.189-3.143 25.293-14.602 44.902-33.935l-42.137-11.284 6.348-23.696z m38.42 180.808c-28.671 14.233-59.811 22.733-93.101 25.293l-8.52-26.061c62.607-3.277 115.435-27.873 158.167-73.616l18.678 17.04c-17.204 18.37-35.502 33.771-54.805 45.977 12.575 18.873 23.102 37.458 31.191 55.122l-24.033 13.876c-5.96-17.634-15.032-36.629-27.576-57.631z m171.89-148.777c12.912 17.623 23.582 34.652 31.58 50.688l-23.01 13.076c-6.39-15.073-16.68-32.522-30.75-51.804l22.18-11.96z m81.92 262.758c-13.702-3.686-28.601-7.936-44.494-12.462-16.138-4.598-28.958-9.625-38.758-14.93-9.175-5.662-16.363-13.742-21.576-24.217-2.355-5.182-4.812-7.977-7.557-8.704-4.987-1.342-16.404 7.362-34.887 26.46l-14.449-22.846c17.818-16.609 32.184-26.388 43.633-29.204l18.309-68.321-32.912-8.817 6.41-23.941 57.099 15.298-25.395 94.761 2.017 3.482c3.994 8.008 8.397 14.54 13.517 19.384 6.226 5.673 16.66 10.609 31.232 15.053 14.407 4.127 31.047 8.847 50.493 14.06 12.472 3.338 25.006 6.43 37.97 9.902a938.291 938.291 0 0 0 29.573 6.328l-13.107 24.013-57.108-15.299z m8.99-210.063l-47.124-12.636 5.734-21.443 137.902 36.946-4.874 18.207a270.07 270.07 0 0 1-54.242 18.872l0.37 0.635 50.37 13.496-29.594 110.47c-4.147 15.462-14.766 21.166-31.723 16.619l-18.699-5.018 0.01-22.968 16.999 5.356c5.489 1.464 8.97-0.543 10.373-5.776l2.806-10.475-33.413-8.95-10.824 40.397-23.941-6.42 10.824-40.398-32.41-8.683-10.895 40.653-24.433-6.554 36.28-135.403 55.358 14.837a451.103 451.103 0 0 0-21.545-22.343l16.691-9.421z m24.893 23.767a256.236 256.236 0 0 0 30.72-8.868l-49.868-13.363c6.994 7.752 13.578 15.124 19.148 22.231z m-66.519 57.815l-4.208 15.708 32.41 8.684 4.218-15.708-32.42-8.684z m56.351 15.094l-4.198 15.708 33.403 8.96 4.208-15.708-33.413-8.96z m39.025-11.991l4.208-15.708-33.413-8.95-4.198 15.708 33.403 8.95z m-57.344-15.36l4.198-15.719-32.41-8.683-4.208 15.708 32.42 8.683z m180.746-50.197c13.23 17.45 24.044 33.977 32.287 50.074l-24.034 13.875c-6.38-15.073-16.425-32.46-30.505-51.732l22.252-12.217z m88.668 264.56c-14.213-3.808-29.604-8.191-46.244-12.922-16.896-4.792-30.453-10.035-40.51-15.401-9.922-5.867-17.366-14.008-22.568-24.484-2.355-5.181-5.315-8.11-8.305-8.909-4.987-1.33-16.793 7.793-35.655 27.331l-14.46-22.856c17.951-17.1 32.892-26.992 44.34-29.808l18.309-68.322-33.413-8.96 6.554-24.432 58.091 15.565-25.395 94.76c0.737 1.26 1.536 2.274 2.263 3.544 4.25 8.09 9.144 14.745 14.264 19.589 6.79 5.56 17.664 10.875 32.983 15.523 14.9 4.25 32.533 9.247 52.736 14.664 11.469 3.072 23.245 5.96 35.287 8.909 12.104 2.714 21.463 4.69 27.833 5.867l-13.251 24.505-52.859-14.162z m1.854-35.85l-34.919-9.348 0.953-26.481c10.71 3.942 21.227 7.557 31.2 10.24 6.483 1.74 10.917-0.82 12.647-7.311l25.795-96.256-93.266-24.986 6.82-25.426 93.255 24.986 10.025-37.407 25.938 6.953-10.035 37.407 34.673 9.287-6.82 25.426-34.663-9.277-27.525 102.727c-4.74 17.716-16.128 24.27-34.078 19.467z m-29.143-128.614c10.137 21.965 17.592 41.063 22.22 56.73l-24.832 8.857c-4.608-16.732-11.417-36.198-20.93-58.531l23.542-7.056z" fill="#ffffff" p-id="3559"></path></svg>