<?xml version="1.0" standalone="no"?><!DOCTYPE svg PUBLIC "-//W3C//DTD SVG 1.1//EN" "http://www.w3.org/Graphics/SVG/1.1/DTD/svg11.dtd"><svg t="1557111727436" class="icon" style="" viewBox="0 0 1024 1024" version="1.1" xmlns="http://www.w3.org/2000/svg" p-id="4160" xmlns:xlink="http://www.w3.org/1999/xlink" width="200" height="200"><defs><style type="text/css">@font-face { font-family: uc-nexus-iconfont; src: url("chrome-extension://pogijhnlcfmcppgimcaccdkmbedjkmhi/res/font_9qmmi8b8jsxxbt9.woff") format("woff"), url("chrome-extension://pogijhnlcfmcppgimcaccdkmbedjkmhi/res/font_9qmmi8b8jsxxbt9.ttf") format("truetype"); }
</style></defs><path d="M682.225451 47.619554L341.773526 47.619554c-42.606377 0-77.387531 34.860972-77.387531 77.384461l0 773.9889c0 42.564421 34.781154 77.387531 77.387531 77.387531l340.451926 0c42.568515 0 77.388555-34.82311 77.388555-77.387531L759.614006 125.002992C759.614006 82.480526 724.793966 47.619554 682.225451 47.619554zM465.559806 109.510136l92.88141 0c8.550747 0 15.534811 6.942109 15.534811 15.493879 0 8.596795-6.983041 15.493879-15.534811 15.493879l-92.88141 0c-8.513908 0-15.412015-6.897084-15.412015-15.493879C450.147792 116.452245 457.044876 109.510136 465.559806 109.510136zM511.959579 945.393711c-25.620517 0-46.438659-20.74037-46.438659-46.40182s20.818141-46.480614 46.438659-46.480614c25.740244 0 46.480614 20.819165 46.480614 46.480614S537.700847 945.393711 511.959579 945.393711zM728.746998 821.605384L295.372729 821.605384 295.372729 202.391547l433.374268 0L728.746998 821.605384z" fill="#8a8a8a" p-id="4161"></path></svg>