<?xml version="1.0" standalone="no"?><!DOCTYPE svg PUBLIC "-//W3C//DTD SVG 1.1//EN" "http://www.w3.org/Graphics/SVG/1.1/DTD/svg11.dtd"><svg t="1556267659713" class="icon" style="" viewBox="0 0 1028 1024" version="1.1" xmlns="http://www.w3.org/2000/svg" p-id="3064" xmlns:xlink="http://www.w3.org/1999/xlink" width="200.78125" height="200"><defs><style type="text/css"></style></defs><path d="M816.904022 700.507159l-19.557809-19.45581 14.823856-14.904854-164.363395-163.558403-14.823855 14.899854-19.556809-19.45981 212.211927-213.251917 198.856058 197.883068V377.192316L652.643627 5.345948H5.838943l5.473947 5.375947L1024.493995 1024V491.892196L816.904022 700.507159zM683.151329 139.735635a4751.726596 4751.726596 0 0 1 19.479809 84.258178c25.713749 3.959961 52.507487 6.221939 80.371215 6.766933l2.154979 25.779749a619.133954 619.133954 0 0 1-77.353244-7.011932c5.319948 24.754758 10.802895 51.2225 16.449839 79.386225l-27.160735 3.08297a4703.770065 4703.770065 0 0 0-15.30785-87.05515c-32.684681-6.262939-65.220363-15.169852-97.604047-26.701739 2.756973-10.527897 4.672954-19.282812 5.737944-26.253744 27.435732 11.857884 56.33345 20.999795 86.694153 27.429732-5.640945-28.473722-11.358889-54.24347-17.137832-77.296245l23.675769-2.384977z m-255.373507 38.717622c20.4748 16.36184 45.290558 34.258665 74.449273 53.693476-7.261929 6.369938-13.28487 11.959883-18.069823 16.769836a2204.944467 2204.944467 0 0 0-71.188305-49.529516l14.808855-20.933796z m-9.457907 119.388834a1134.61892 1134.61892 0 0 1-30.7377-31.966687c5.09595-6.053941 10.109901-13.26987 15.042853-21.636789 10.405898 13.131872 20.4948 24.56176 30.273704 34.294665 10.863894 10.807894 23.633769 9.773905 38.314626-3.11297 17.921825-15.526848 38.004629-33.999668 60.247412-55.416458l-60.996404-60.700408 87.835142-74.76527 16.759836 16.678838-70.68231 60.32341 27.934728 27.796729 86.209158-74.525272-57.504439-57.219441 15.989844-16.061844 75.896259 75.524263-103.590988 89.200129 15.602847 15.521848c-35.690651 33.377674-62.102394 57.597438-79.249226 72.655291-24.719759 22.349782-47.171539 23.491771-67.345342 3.409966z m164.378395 170.06434c-13.248871-36.041648-19.684808-70.550311-19.297812-103.529989-31.577692 1.314987-67.905337-5.635945-108.971936-20.871797 1.991981-8.519917 3.673964-18.125823 5.039951-28.801718 38.279626 17.090833 73.526282 24.974756 105.720968 23.659769 3.332967-30.355704 13.238871-63.895376 29.718709-100.631018l23.241773 8.769915c-14.32486 30.533702-23.308772 60.201412-26.951736 89.01713 26.61974-4.712954 55.156461-16.469839 85.613164-35.282655l11.434888 23.893767c-38.502624 20.372801-71.447302 32.842679-98.837035 37.397634-0.534995 33.137676 7.434927 66.56135 23.929766 100.269021-4.177959 0.473995-14.394859 2.512975-30.6397 6.109941z" fill="#D81E06" p-id="3065"></path><path d="M827.151922 423.93586l62.626389 62.320391-55.823455 56.104453-62.632388-62.321392z" fill="#D81E06" p-id="3066"></path><path d="M828.842906 649.386658l163.563403-164.363395-164.358395-163.563402-163.562403 164.368395 164.358395 163.558402z m95.296069-161.408423L822.896964 589.716241l-18.156823-18.074823 12.969874-13.039873-62.622389-62.315392-12.973873 13.039873-18.155823-18.069823 101.237011-101.736007 98.944034 98.459039z" fill="#D81E06" p-id="3067"></path></svg>