<svg id="图层_1" data-name="图层 1" xmlns="http://www.w3.org/2000/svg" viewBox="0 0 890.34 721.31"><defs><style>.cls-1,.cls-2{fill:#fff;}.cls-2{fill-rule:evenodd;}</style></defs><title>未标题-1</title><path class="cls-1" d="M435,607.76,423.9,598a3.14,3.14,0,0,0-3.08-.61l-14,4.74a3.14,3.14,0,0,0-2.07,2.36L401.93,619a3.14,3.14,0,0,0,1,3L414,631.68a3.14,3.14,0,0,0,3.08.61l14-4.74a3.14,3.14,0,0,0,2.07-2.36L436,610.73A3.14,3.14,0,0,0,435,607.76Z" transform="translate(51.7 -15.46)"/><path class="cls-1" d="M1.21,732.83,41.09,593.77h43q24.26,0,34.14,8.87T123.06,629A39.58,39.58,0,0,1,112.22,647q-7.79,7.43-20.38,11.56,11.83,2.88,16.46,11.84t.91,21.92q-5.75,20-23.49,30.26T38.9,732.83Zm37.41-25.13H52.44a29.41,29.41,0,0,0,17.08-4.89,23.71,23.71,0,0,0,9.56-13.43q2.39-8.35-1.86-12.9t-14.52-4.56H48.88Zm16.91-59h11q9.78,0,16.52-4.27a20.44,20.44,0,0,0,9-12q2.23-7.77-2-11.41t-15.31-3.64H64.53Z" transform="translate(51.7 -15.46)"/><path class="cls-1" d="M206.86,702l-11,26.56a111.73,111.73,0,0,1-19.15,6.23,82.53,82.53,0,0,1-17.84,2q-21.58,0-31.25-12.42t-4-32.37q6-20.81,24.56-35.15t39.31-14.34q17.74,0,26.09,10.5t3.57,27.19q-.74,2.59-2.75,8.25l-.26.57-3.81,3.93L151,694.57q-1.83,8.73,3.23,14.15t15.13,5.42A55.61,55.61,0,0,0,186,711.06,128.23,128.23,0,0,0,206.86,702Zm-51.49-20.43,37.83-1.15.39-1.34q2-6.81-1.59-11.17t-10.83-4.36a25.68,25.68,0,0,0-15,4.75A32.41,32.41,0,0,0,155.37,681.52Z" transform="translate(51.7 -15.46)"/><path class="cls-1" d="M308.81,702l-11,26.56a111.73,111.73,0,0,1-19.15,6.23,82.53,82.53,0,0,1-17.84,2q-21.58,0-31.25-12.42t-4-32.37q6-20.81,24.56-35.15t39.31-14.34q17.74,0,26.09,10.5t3.57,27.19q-.74,2.59-2.75,8.25l-.26.57-3.81,3.93-59.45,1.63q-1.83,8.73,3.23,14.15t15.13,5.42a55.61,55.61,0,0,0,16.66-3.07A128.23,128.23,0,0,0,308.81,702Zm-51.49-20.43,37.83-1.15.39-1.34q2-6.81-1.59-11.17T283.1,663.5a25.68,25.68,0,0,0-15,4.75A32.41,32.41,0,0,0,257.31,681.52Z" transform="translate(51.7 -15.46)"/><path class="cls-1" d="M721.7,702l-11,26.56a111.73,111.73,0,0,1-19.15,6.23,82.53,82.53,0,0,1-17.84,2q-21.58,0-31.25-12.42t-4-32.37q6-20.81,24.56-35.15t39.31-14.34q17.74,0,26.09,10.5t3.57,27.19q-.74,2.59-2.75,8.25l-.26.57-3.81,3.93-59.45,1.63Q664,703.3,669,708.72t15.13,5.42a55.61,55.61,0,0,0,16.66-3.07A128.23,128.23,0,0,0,721.7,702Zm-51.49-20.43L708,680.38l.39-1.34q2-6.81-1.59-11.17T696,663.5a25.68,25.68,0,0,0-15,4.75A32.41,32.41,0,0,0,670.21,681.52Z" transform="translate(51.7 -15.46)"/><path class="cls-1" d="M351,732.83h-30.4L359.81,596l31.58-4.12Z" transform="translate(51.7 -15.46)"/><path class="cls-1" d="M-21.3,732.83H-51.7l37.29-130L-20.74,597l39.87-5.11L-19.11,725.21l4.37,7.62Z" transform="translate(51.7 -15.46)"/><path class="cls-1" d="M403.24,732.83h-30.4l24.78-86.41,31.58-4.12Z" transform="translate(51.7 -15.46)"/><path class="cls-1" d="M455.89,732.83h-30l24.78-86.41h27.72l-4.15,14.48a74.07,74.07,0,0,1,18.32-12.71A42.49,42.49,0,0,1,510.61,644q13.71,0,18.56,7.86t.5,23L513,732.83H483.22l14.19-49.49q2-6.8.16-10.26t-7.26-3.45a19.41,19.41,0,0,0-13.6,5.27q-5.73,5.27-8.62,15.34Z" transform="translate(51.7 -15.46)"/><path class="cls-1" d="M763.83,730.77h-30l24.78-86.41H786.3l-4.15,14.48c6.23-5.69,18.89-11,35.17-11s21.46,8.89,21.33,13.41L805.51,671s-3.61-3.45-7.26-3.45a19.41,19.41,0,0,0-13.6,5.27q-5.73,5.27-8.62,15.34Z" transform="translate(51.7 -15.46)"/><path class="cls-1" d="M564.17,732.83H535.11L574.35,596l30.24-4.12L578.74,682l36.67-35.58h31.46l-40.6,36.92,22.92,49.49H596l-18.67-45.94Z" transform="translate(51.7 -15.46)"/><path class="cls-2" d="M163.7,160.87c-.55,8,3.17,15.78,8.68,22,10.74,12.15,22.71,23.06,36.84,31.48,7.74,4.61,15.54,4.13,23.38,1.86,23.71-6.88,46.73-15.8,69.62-25q26.12-10.49,52-21.55,27.83-11.81,54.61-25.87c17.16-9,35.36-16.08,52.95-24.32,11.7-5.48,23.48-10.75,35.4-15.71C513.6,97,529.95,90,547.08,85.06c4.87-1.4,9.64-3.22,14.58-4.22s9.92.63,14.53,2.72c21.52,9.73,39.39,24.07,53,43.36,6,8.55,10.1,18.24,9.83,29a53.28,53.28,0,0,1-14.17,34.85c-11.77,13.12-24.53,25.13-40.1,34-9.45,5.39-18.75,6.83-29.12,4.17-20.23-5.18-39.91-12.09-59.49-19.21-18.58-6.76-36.85-14.38-55.25-21.65-10-3.94-19.89-8-29.93-11.8-1.24-.47-3-1.43-3.2-2.2s2.2-2.31,3.15-2.81c13.05-6.78,13.22-6.28,28.44-.08,20.33,8.28,40.59,16.84,61.28,24.11,18.69,6.57,37.22,13.7,56.64,18.27,9.36,2.2,17,.57,24.45-4.48a158.67,158.67,0,0,0,34.7-31.44c9.25-11.37,9.25-30.69.25-42.88-11.56-15.67-26.44-27.16-43.6-36.06-6.22-3.22-12.34-2-18.23-.29-17.11,4.9-33.63,11.53-50,18.41s-33.09,13.8-49.31,21.39c-23.57,11-46.74,22.9-70.27,34-20.61,9.71-41.71,18.32-62.83,26.87-16,6.48-31.94,13.11-48.14,19.09-16,5.89-32,11.52-48.56,15.41-4.67,1.1-9.9.23-14.84-1.88-10.32-4.42-19.38-10.74-28.05-17.62-8.94-7.09-17.33-14.88-24.11-24.11a57.79,57.79,0,0,1-10.13-24.61c-2.72-15.56,4-28.38,12.65-40C173,109.42,188.93,98.13,206,88.21c10.75-6.27,21.44-4,32.14-.8,21.41,6.36,42.15,14.66,62.89,22.84,14.81,5.84,29.13,12.89,43.71,19.34,10.72,4.74,21.49,9.36,32.21,14.09,1,.45,3.18,1.5,2.62,2.09a45,45,0,0,1-3.64,2.75c-9,5.9-16.64,4.51-25.59.13-24.69-12.08-50.19-22.4-75.75-32.46-17.37-6.84-34.85-13.66-53.36-16.82-4.57-.78-9.07,2.44-13.06,4.93-11.81,7.4-22.73,16-31.92,26.51C169,139.08,163.44,148.29,163.7,160.87Z" transform="translate(51.7 -15.46)"/><path class="cls-1" d="M454.89,231.28,407,192.77a21.92,21.92,0,0,0-27.65,0L334.9,228.51a46.21,46.21,0,0,0-16.49,43.13l21,141.93v.07a38.4,38.4,0,0,0,12.18,22.55l26.81,24.08a22,22,0,0,0,29.52,0l26.81-24.08a38.4,38.4,0,0,0,12.19-22.55v0l21.7-146.37A38.53,38.53,0,0,0,454.89,231.28Zm-18,147.35-3.29,22.2a5.61,5.61,0,0,1-5.5,4.84H358.25a5.61,5.61,0,0,1-5.5-4.84l-3.28-22.2a5.65,5.65,0,0,1,5.5-6.55h76.43A5.65,5.65,0,0,1,436.9,378.63Zm5.82-39.28-1.85,12.49a5.61,5.61,0,0,1-5.5,4.84H351a5.61,5.61,0,0,1-5.5-4.84l-1.85-12.49a5.65,5.65,0,0,1,5.5-6.55h88.06A5.65,5.65,0,0,1,442.72,339.35Zm5.82-39.28-1.85,12.49a5.61,5.61,0,0,1-5.5,4.84h-96a5.61,5.61,0,0,1-5.5-4.84l-1.85-12.49a5.65,5.65,0,0,1,5.5-6.55H443A5.65,5.65,0,0,1,448.54,300.07Zm5.23-35.25v.07l-1.24,8.39a5.61,5.61,0,0,1-5.5,4.84H339.38a5.61,5.61,0,0,1-5.5-4.84l-.59-4v0a30.63,30.63,0,0,1,10.92-28.61l44.45-35.74a7.17,7.17,0,0,1,9,0l47.8,38.43A23,23,0,0,1,453.77,264.82Z" transform="translate(51.7 -15.46)"/><path class="cls-1" d="M434.44,35.64l-29.78-17.2a22.43,22.43,0,0,0-22.37,0l-29.78,17.2A22.43,22.43,0,0,0,341.32,55V89.41a22.43,22.43,0,0,0,11.18,19.37L382.29,126a22.43,22.43,0,0,0,22.37,0l29.78-17.2a22.43,22.43,0,0,0,11.18-19.37V55A22.43,22.43,0,0,0,434.44,35.64Zm-3.87,53.76a7.34,7.34,0,0,1-3.66,6.34l-29.78,17.2a7.33,7.33,0,0,1-7.32,0L360,95.74a7.34,7.34,0,0,1-3.66-6.34V55A7.34,7.34,0,0,1,360,48.68l29.78-17.2a7.34,7.34,0,0,1,7.32,0l29.78,17.2A7.34,7.34,0,0,1,430.57,55Z" transform="translate(51.7 -15.46)"/></svg>