<svg id="图层_1" data-name="图层 1" xmlns="http://www.w3.org/2000/svg" viewBox="0 0 890.34 721.31"><defs><style>.cls-1{fill-rule:evenodd;}.cls-2{fill:#f7b52c;}.cls-3{fill:#231815;}</style></defs><title>未标题-1</title><path class="cls-1" d="M171.36,166.87c-.55,8,3.17,15.78,8.68,22,10.74,12.15,22.71,23.06,36.84,31.48,7.74,4.61,15.54,4.13,23.38,1.86,23.71-6.88,46.73-15.8,69.62-25q26.12-10.49,52-21.55,27.83-11.81,54.61-25.87c17.16-9,35.36-16.08,52.95-24.32,11.7-5.48,23.48-10.75,35.4-15.71C521.25,103,537.6,96,554.74,91.06c4.87-1.4,9.64-3.22,14.58-4.22s9.92.63,14.53,2.72c21.52,9.73,39.39,24.07,53,43.36,6,8.55,10.1,18.24,9.83,29a53.28,53.28,0,0,1-14.17,34.85c-11.77,13.12-24.53,25.13-40.1,34-9.45,5.39-18.75,6.83-29.12,4.17-20.23-5.18-39.91-12.09-59.49-19.21-18.58-6.76-36.85-14.38-55.25-21.65-10-3.94-19.89-8-29.93-11.8-1.24-.47-3-1.43-3.2-2.2s2.2-2.31,3.15-2.81c13.05-6.78,13.22-6.28,28.44-.08,20.33,8.28,40.59,16.84,61.28,24.11,18.69,6.57,37.22,13.7,56.64,18.27,9.36,2.2,17,.57,24.45-4.48a158.67,158.67,0,0,0,34.7-31.44c9.25-11.37,9.25-30.69.25-42.88-11.56-15.67-26.44-27.16-43.6-36.06-6.22-3.22-12.34-2-18.23-.29-17.11,4.9-33.63,11.53-50,18.41s-33.09,13.8-49.31,21.39c-23.57,11-46.74,22.9-70.27,34C372.26,188,351.17,196.57,330,205.12c-16,6.48-31.94,13.11-48.14,19.09-16,5.89-32,11.52-48.56,15.41-4.67,1.1-9.9.23-14.84-1.88-10.32-4.42-19.38-10.74-28.05-17.62-8.94-7.09-17.33-14.88-24.11-24.11a57.79,57.79,0,0,1-10.13-24.61c-2.72-15.56,4-28.38,12.65-40,11.77-15.93,27.73-27.22,44.75-37.14,10.75-6.27,21.44-4,32.14-.8,21.41,6.36,42.15,14.66,62.89,22.84,14.81,5.84,29.13,12.89,43.71,19.34,10.72,4.74,21.49,9.36,32.21,14.09,1,.45,3.18,1.5,2.62,2.09a45,45,0,0,1-3.64,2.75c-9,5.9-16.64,4.51-25.59.13-24.69-12.08-50.19-22.4-75.75-32.46-17.37-6.84-34.85-13.66-53.36-16.82-4.57-.78-9.07,2.44-13.06,4.93-11.81,7.4-22.73,16-31.92,26.51C176.64,145.08,171.09,154.29,171.36,166.87Z" transform="translate(43.87 -21.46)"/><path d="M442.1,41.64l-29.78-17.2a22.43,22.43,0,0,0-22.37,0l-29.78,17.2A22.43,22.43,0,0,0,349,61V95.41a22.43,22.43,0,0,0,11.18,19.37L389.95,132a22.43,22.43,0,0,0,22.37,0l29.78-17.2a22.43,22.43,0,0,0,11.18-19.37V61A22.43,22.43,0,0,0,442.1,41.64Z" transform="translate(43.87 -21.46)"/><path d="M462.54,237.28l-47.89-38.5a21.92,21.92,0,0,0-27.65,0l-44.45,35.74a46.21,46.21,0,0,0-16.49,43.13l21,141.93v.07a38.4,38.4,0,0,0,12.18,22.55l26.81,24.09a22,22,0,0,0,29.52,0l26.81-24.09a38.4,38.4,0,0,0,12.19-22.55v0l21.7-146.37A38.53,38.53,0,0,0,462.54,237.28Z" transform="translate(43.87 -21.46)"/><path class="cls-2" d="M352.85,323.4h96a5.61,5.61,0,0,0,5.5-4.84l1.85-12.49a5.65,5.65,0,0,0-5.5-6.55H351a5.65,5.65,0,0,0-5.5,6.55l1.85,12.49A5.61,5.61,0,0,0,352.85,323.4Z" transform="translate(43.87 -21.46)"/><path class="cls-2" d="M358.66,362.68H443a5.61,5.61,0,0,0,5.5-4.84l1.85-12.49a5.65,5.65,0,0,0-5.5-6.55H356.81a5.65,5.65,0,0,0-5.5,6.55l1.85,12.49A5.61,5.61,0,0,0,358.66,362.68Z" transform="translate(43.87 -21.46)"/><path class="cls-2" d="M365.91,411.67h69.85a5.61,5.61,0,0,0,5.5-4.84l3.29-22.2a5.65,5.65,0,0,0-5.5-6.55H362.62a5.65,5.65,0,0,0-5.5,6.55l3.28,22.2A5.61,5.61,0,0,0,365.91,411.67Z" transform="translate(43.87 -21.46)"/><path class="cls-2" d="M453.15,249.32l-47.8-38.43a7.17,7.17,0,0,0-9,0l-44.45,35.74a30.63,30.63,0,0,0-10.92,28.61v0l.59,4a5.61,5.61,0,0,0,5.5,4.84H454.67a5.61,5.61,0,0,0,5.5-4.84l1.24-8.39v-.07A23,23,0,0,0,453.15,249.32Z" transform="translate(43.87 -21.46)"/><path class="cls-2" d="M434.57,54.68l-29.78-17.2a7.34,7.34,0,0,0-7.32,0l-29.78,17.2A7.34,7.34,0,0,0,364,61V95.41a7.34,7.34,0,0,0,3.66,6.34l29.78,17.2a7.34,7.34,0,0,0,7.32,0l29.78-17.2a7.34,7.34,0,0,0,3.66-6.34V61A7.34,7.34,0,0,0,434.57,54.68Z" transform="translate(43.87 -21.46)"/><path class="cls-2" d="M442.81,613.76,431.72,604a3.14,3.14,0,0,0-3.08-.61l-14,4.74a3.14,3.14,0,0,0-2.07,2.36L409.75,625a3.14,3.14,0,0,0,1,3l11.09,9.71a3.14,3.14,0,0,0,3.08.61l14-4.74a3.14,3.14,0,0,0,2.07-2.36l2.87-14.46A3.14,3.14,0,0,0,442.81,613.76Z" transform="translate(43.87 -21.46)"/><path class="cls-3" d="M9,738.83,48.91,599.77h43q24.26,0,34.14,8.87T130.88,635A39.58,39.58,0,0,1,120,653q-7.79,7.43-20.38,11.56,11.83,2.88,16.46,11.84t.91,21.92q-5.75,20-23.49,30.26t-46.8,10.21Zm37.41-25.13H60.26a29.41,29.41,0,0,0,17.08-4.89,23.71,23.71,0,0,0,9.56-13.43Q89.29,687,85,682.49t-14.52-4.56H56.71Zm16.91-59h11q9.78,0,16.52-4.27a20.44,20.44,0,0,0,9-12q2.23-7.77-2-11.41t-15.31-3.64H72.35Z" transform="translate(43.87 -21.46)"/><path class="cls-3" d="M214.68,708l-11,26.56a111.73,111.73,0,0,1-19.15,6.23,82.53,82.53,0,0,1-17.84,2q-21.58,0-31.25-12.42t-4-32.37q6-20.81,24.56-35.15t39.31-14.34q17.74,0,26.09,10.5t3.57,27.19q-.74,2.59-2.75,8.25L222,695l-3.81,3.93-59.45,1.63q-1.83,8.73,3.23,14.15t15.13,5.42a55.61,55.61,0,0,0,16.66-3.07A128.23,128.23,0,0,0,214.68,708Zm-51.49-20.43L201,686.38l.39-1.34q2-6.81-1.59-11.17T189,669.5a25.68,25.68,0,0,0-15,4.75A32.41,32.41,0,0,0,163.19,687.52Z" transform="translate(43.87 -21.46)"/><path class="cls-3" d="M316.63,708l-11,26.56a111.73,111.73,0,0,1-19.15,6.23,82.53,82.53,0,0,1-17.84,2q-21.58,0-31.25-12.42t-4-32.37q6-20.81,24.56-35.15t39.31-14.34q17.74,0,26.09,10.5T327,686.18q-.74,2.59-2.75,8.25L324,695l-3.81,3.93-59.45,1.63q-1.83,8.73,3.23,14.15t15.13,5.42a55.61,55.61,0,0,0,16.66-3.07A128.23,128.23,0,0,0,316.63,708Zm-51.49-20.43L303,686.38l.39-1.34q2-6.81-1.59-11.17t-10.83-4.36a25.68,25.68,0,0,0-15,4.75A32.41,32.41,0,0,0,265.14,687.52Z" transform="translate(43.87 -21.46)"/><path class="cls-3" d="M729.52,708l-11,26.56a111.73,111.73,0,0,1-19.15,6.23,82.53,82.53,0,0,1-17.84,2q-21.58,0-31.25-12.42t-4-32.37q6-20.81,24.56-35.15t39.31-14.34q17.74,0,26.09,10.5t3.57,27.19q-.74,2.59-2.75,8.25l-.26.57-3.81,3.93-59.45,1.63q-1.83,8.73,3.23,14.15T692,720.13a55.61,55.61,0,0,0,16.66-3.07A128.23,128.23,0,0,0,729.52,708ZM678,687.52l37.83-1.15.39-1.34q2-6.81-1.59-11.17t-10.83-4.36a25.68,25.68,0,0,0-15,4.75A32.41,32.41,0,0,0,678,687.52Z" transform="translate(43.87 -21.46)"/><path class="cls-3" d="M358.79,738.83h-30.4L367.64,602l31.58-4.12Z" transform="translate(43.87 -21.46)"/><path class="cls-3" d="M-13.47,738.83h-30.4l37.29-130L-12.92,603,27,597.86-11.29,731.21l4.37,7.62Z" transform="translate(43.87 -21.46)"/><path class="cls-3" d="M411.06,738.83h-30.4l24.78-86.41L437,648.3Z" transform="translate(43.87 -21.46)"/><path class="cls-3" d="M463.71,738.83h-30l24.78-86.41h27.72L482,666.91a74.07,74.07,0,0,1,18.32-12.71A42.49,42.49,0,0,1,518.43,650q13.71,0,18.56,7.86t.5,23l-16.61,57.93H491l14.19-49.49q2-6.8.16-10.26t-7.26-3.45a19.41,19.41,0,0,0-13.6,5.27q-5.73,5.27-8.62,15.34Z" transform="translate(43.87 -21.46)"/><path class="cls-3" d="M771.65,736.77h-30l24.78-86.41h27.72L790,664.84c6.23-5.69,18.89-11,35.17-11s21.46,8.89,21.33,13.41L813.33,677s-3.61-3.45-7.26-3.45a19.41,19.41,0,0,0-13.6,5.27q-5.73,5.27-8.62,15.34Z" transform="translate(43.87 -21.46)"/><path class="cls-3" d="M572,738.83H542.93L582.17,602l30.24-4.12L586.56,688l36.67-35.58h31.46l-40.6,36.92L637,738.83H603.83l-18.67-45.94Z" transform="translate(43.87 -21.46)"/></svg>