<?xml version="1.0" standalone="no"?><!DOCTYPE svg PUBLIC "-//W3C//DTD SVG 1.1//EN" "http://www.w3.org/Graphics/SVG/1.1/DTD/svg11.dtd"><svg t="1557213226264" class="icon" style="" viewBox="0 0 1024 1024" version="1.1" xmlns="http://www.w3.org/2000/svg" p-id="19388" xmlns:xlink="http://www.w3.org/1999/xlink" width="200" height="200"><defs><style type="text/css">@font-face { font-family: uc-nexus-iconfont; src: url("chrome-extension://pogijhnlcfmcppgimcaccdkmbedjkmhi/res/font_9qmmi8b8jsxxbt9.woff") format("woff"), url("chrome-extension://pogijhnlcfmcppgimcaccdkmbedjkmhi/res/font_9qmmi8b8jsxxbt9.ttf") format("truetype"); }
</style></defs><path d="M200.227 344.412c-22.448 0-40.708-18.259-40.708-40.708 0-22.448 18.26-40.707 40.708-40.707 22.447 0 40.708 18.26 40.708 40.707 0 22.448-18.261 40.708-40.708 40.708z m0-63.325c-12.475 0-22.616 10.142-22.616 22.615 0 12.475 10.142 22.617 22.616 22.617s22.614-10.142 22.614-22.617c0-12.473-10.14-22.615-22.614-22.615z" fill="#FFD8A0" p-id="19389"></path><path d="M788.23 262.996c-22.45 0-40.708-18.26-40.708-40.708 0-22.448 18.258-40.708 40.708-40.708 22.448 0 40.708 18.26 40.708 40.708 0 22.448-18.259 40.708-40.708 40.708z m0-63.324c-12.474 0-22.614 10.141-22.614 22.615s10.141 22.615 22.614 22.615c12.475 0 22.616-10.141 22.616-22.615 0.001-12.472-10.141-22.615-22.616-22.615z" fill="#FFF7EC" p-id="19390"></path><path d="M109.763 679.122c-22.448 0-40.708-18.262-40.708-40.708 0-22.448 18.26-40.709 40.708-40.709 22.449 0 40.708 18.262 40.708 40.709 0.002 22.447-18.259 40.708-40.708 40.708z m0-63.324c-12.475 0-22.615 10.142-22.615 22.616s10.141 22.615 22.615 22.615c12.474 0 22.616-10.142 22.616-22.615 0-12.475-10.142-22.616-22.616-22.616z" fill="#FFF4E4" p-id="19391"></path><path d="M987.249 489.152c-17.455 0-31.662-14.206-31.662-31.663s14.206-31.663 31.662-31.663c17.455 0 31.661 14.206 31.661 31.663s-14.208 31.663-31.661 31.663z m0-45.231c-7.481 0-13.568 6.087-13.568 13.57 0 7.482 6.087 13.568 13.568 13.568 7.482 0 13.571-6.086 13.571-13.568 0-7.483-6.089-13.57-13.571-13.57zM326.874 253.949c-17.458 0-31.662-14.206-31.662-31.661 0-17.456 14.205-31.663 31.662-31.663 17.456 0 31.661 14.206 31.661 31.663s-14.205 31.661-31.661 31.661z m0-45.229c-7.482 0-13.572 6.088-13.572 13.57 0 7.481 6.089 13.569 13.572 13.569 7.481 0 13.568-6.088 13.568-13.569 0-7.482-6.086-13.57-13.568-13.57z" fill="#FFC879" p-id="19392"></path><path d="M928.051 392.312l4.282-30.504-38.833 7.154 2.623-41.628-39.788 7.334 3.338-53.183 18.056 1.132-1.888 30.053 39.787-7.332-2.623 41.626 40.744-7.508-4.621 32.855 31.185-2.731 1.572 18.022z" fill="#FFD495" p-id="19393"></path><path d="M266.014 790.512l-1.607-30.76-36.768 14.436-5.371-41.362-37.66 14.78-6.849-52.829 17.933-2.333 3.881 29.859 37.659-14.779 5.372 41.344 38.553-15.141 1.731 33.128 30.089-8.623 4.984 17.385zM868.434 727.129l-0.438-18.092 30.106-0.735-10.769-38.994 41.688-1.017-11.016-39.921 33.109 1.732-5.42-30.822 17.808-3.146 9.381 53.226-30.763-1.608 10.507 38.067-41.69 1.016 10.769 38.993z" fill="#FFF3E3" p-id="19394"></path><path d="M81.865 532.847l-48.156-24.542 19.799-23.597-36.724-14.514 24.277-33.906-37.625-14.877 31.017-43.324 14.716 10.531-17.534 24.489 37.625 14.877-24.278 33.906 38.528 15.221-21.319 25.398 27.891 14.223z" fill="#FFBD5E" p-id="19395"></path><path d="M684.486 479.167a142.256 142.256 0 0 1-9.603-1.646 142.775 142.775 0 0 1-13.214-3.408 151.243 151.243 0 0 1-5.133-1.709c-2.149-0.757-4.262-1.589-6.365-2.447a139.066 139.066 0 0 1-6.972-3.056c-2.275-1.074-4.528-2.178-6.736-3.369-1.662-0.896-3.29-1.84-4.917-2.801a136.283 136.283 0 0 1-5.49-3.442c-1.429-0.935-2.875-1.831-4.27-2.818-2.813-1.987-5.533-4.096-8.199-6.291-1.316-1.078-2.572-2.212-3.845-3.338a145.364 145.364 0 0 1-4.995-4.641c-1.213-1.182-2.435-2.351-3.612-3.576a138.306 138.306 0 0 1-6.856-7.707c-1.169-1.412-2.253-2.892-3.369-4.351a159.893 159.893 0 0 1-3.499-4.767 142.926 142.926 0 0 1-3.499-5.23c-0.856-1.354-1.662-2.753-2.476-4.143a138.963 138.963 0 0 1-5.836-11.009c-0.538-1.118-1.091-2.222-1.595-3.347a143.04 143.04 0 0 1-2.778-6.802c-0.477-1.234-0.909-2.476-1.342-3.719a140.646 140.646 0 0 1-3.646-12.149c-0.337-1.312-0.709-2.619-1.004-3.939-0.486-2.195-0.884-4.416-1.273-6.646a164.267 164.267 0 0 1-0.806-5.381c-0.338-2.533-0.641-5.07-0.84-7.642-0.225-2.9-0.381-5.81-0.433-8.719-0.009-0.836-0.122-1.653-0.122-2.494 0-1.762 0.122-3.515 0.182-5.269 0.01-0.252 0.019-0.498 0.027-0.749a150.28 150.28 0 0 1 0.673-9.096c2.321-21.769 9.586-42.789 21.483-61.327a148.969 148.969 0 0 0-64.646 16.989 52.876 52.876 0 0 1-48.88 0 152.716 152.716 0 0 0-71.67-17.292c-81.083 0-124.767 73.315-124.767 141.998 0 93.967 69.895 179.206 207.736 253.386a29.382 29.382 0 0 0 27.623 0c99.041-53.277 163.202-112.306 191.242-176.702-4.184-0.087-8.314-0.43-12.419-0.875a125.443 125.443 0 0 1-3.859-0.476z m-104.435-25.821a15.443 15.443 0 0 1 0 16.019 15.378 15.378 0 0 1-2.684 3.303 15.472 15.472 0 0 1-11.568 4.178h-54.872v54.871a15.409 15.409 0 0 1-4.217 11.596 15.254 15.254 0 0 1-3.325 2.717 15.458 15.458 0 0 1-23.431-14.19v-54.993h-54.993c-8.147-0.511-14.486-7.265-14.486-15.43 0-7.188 4.927-13.27 11.664-14.971a15.465 15.465 0 0 1 3.065-0.511h54.75v-54.932a15.446 15.446 0 0 1 7.421-14.192 15.375 15.375 0 0 1 12.26-1.62c1.369 0.373 2.684 0.927 3.931 1.68a15.444 15.444 0 0 1 7.422 14.192v54.872h54.872a15.452 15.452 0 0 1 14.191 7.411z" fill="#FF7E00" opacity=".4" p-id="19396"></path><path d="M410.717 461.365c0 8.156 6.346 14.911 14.486 15.43h54.872v-30.861h-54.871a15.538 15.538 0 0 0-3.065 0.511c-6.608 1.784-11.422 7.815-11.422 14.92zM510.988 445.934v0.122h-0.062v30.739h54.934a15.497 15.497 0 0 0 11.507-4.126 15.408 15.408 0 0 0 2.684-3.303 15.454 15.454 0 1 0-14.19-23.431h-54.873z" fill="#FFFFFF" opacity=".4" p-id="19397"></path><path d="M510.865 476.795h-30.79v54.923a15.445 15.445 0 0 0 7.421 14.193 15.462 15.462 0 0 0 16.01 0 15.373 15.373 0 0 0 3.204-2.598 15.407 15.407 0 0 0 4.217-11.596v-54.923h-0.062zM487.557 376.871a15.445 15.445 0 0 0-7.421 14.192v54.872h30.792v0.122h0.062v-54.994a15.444 15.444 0 0 0-7.422-14.192 15.384 15.384 0 0 0-3.931-1.68 15.444 15.444 0 0 0-12.08 1.68z" fill="#FFFFFF" opacity=".4" p-id="19398"></path><path d="M510.927 445.934h-30.852v30.861h30.852v-30.739z" fill="#FFFFFF" opacity=".4" p-id="19399"></path><path d="M590.424 261.958h-6.112a141.924 141.924 0 0 0-21.666 61.508l-0.025 0.26c-0.311 2.94-0.52 5.888-0.648 8.836l-0.027 0.749a145.564 145.564 0 0 0-0.06 7.763c0.052 2.909 0.208 5.819 0.433 8.719 0.208 2.554 0.502 5.1 0.84 7.642 0.243 1.796 0.503 3.589 0.806 5.381 0.39 2.222 0.787 4.438 1.273 6.646 0.295 1.321 0.667 2.628 1.004 3.939a137.51 137.51 0 0 0 3.646 12.149c0.433 1.243 0.865 2.485 1.342 3.719a135.077 135.077 0 0 0 2.778 6.802c0.504 1.125 1.057 2.229 1.595 3.347 0.944 1.992 1.87 3.982 2.909 5.939 0.918 1.732 1.939 3.39 2.927 5.07 0.813 1.39 1.619 2.789 2.476 4.143a145.959 145.959 0 0 0 3.499 5.23 161.68 161.68 0 0 0 3.499 4.767c1.116 1.458 2.2 2.939 3.369 4.351a139.434 139.434 0 0 0 6.856 7.707c1.178 1.225 2.399 2.394 3.612 3.576a146.37 146.37 0 0 0 4.995 4.641c1.272 1.126 2.536 2.26 3.845 3.338 2.666 2.194 5.386 4.304 8.199 6.291 1.395 0.988 2.841 1.888 4.27 2.818a136.991 136.991 0 0 0 5.49 3.442c1.627 0.961 3.255 1.906 4.917 2.801 2.208 1.191 4.461 2.295 6.736 3.369a142.356 142.356 0 0 0 6.972 3.056c2.104 0.858 4.216 1.69 6.365 2.447 1.705 0.597 3.41 1.174 5.133 1.709a143.531 143.531 0 0 0 13.214 3.408c3.178 0.658 6.373 1.205 9.603 1.646 1.282 0.177 2.57 0.334 3.861 0.476 4.104 0.446 8.235 0.789 12.419 0.875a190.53 190.53 0 0 0 16.442-77.169c-0.002-69.531-47.419-141.391-126.787-141.391z" fill="#FD973F" opacity=".4" p-id="19400"></path><path d="M581.55 332.329a52.872 52.872 0 0 1-48.881 0A152.71 152.71 0 0 0 461 315.037c-81.082 0-124.767 73.315-124.767 141.997 0 93.966 69.895 179.206 207.736 253.377a29.332 29.332 0 0 0 27.623 0c99.041-53.269 163.203-112.297 191.241-176.693-77.238-1.594-139.021-64.682-139.002-141.938a141.276 141.276 0 0 1 22.366-76.44 149 149 0 0 0-64.647 16.989z m46.316 166.865a15.467 15.467 0 0 1 14.192 7.421 15.475 15.475 0 0 1 0 16.02 15.458 15.458 0 0 1-14.192 7.412h-54.993v54.991a15.445 15.445 0 0 1-7.421 14.193 15.46 15.46 0 0 1-23.432-14.193v-54.991h-54.993c-8.148-0.511-14.486-7.266-14.486-15.431 0-8.157 6.338-14.911 14.486-15.423h54.993v-54.992a15.443 15.443 0 0 1 7.423-14.192 15.42 15.42 0 0 1 16.009 0 15.443 15.443 0 0 1 7.421 14.192v54.992h54.993z" fill="#FF7E00" p-id="19401"></path><path d="M762.833 533.719a190.506 190.506 0 0 0 16.442-77.169c0-69.531-47.416-141.392-126.783-141.392h-6.114c-27.733 43.234-29.959 98.071-5.8 143.401 24.15 45.33 70.906 74.068 122.255 75.16z" fill="#FF7E00" p-id="19402"></path><path d="M762.833 533.719a190.506 190.506 0 0 0 16.442-77.169c0-69.531-47.416-141.392-126.783-141.392h-6.114c-27.733 43.234-29.959 98.071-5.8 143.401 24.15 45.33 70.906 74.068 122.255 75.16z" fill="#FD973F" p-id="19403"></path></svg>